<svg id="Layer_1" enable-background="new 0 0 511.086 511.086" height="512" viewBox="0 0 511.086 511.086" width="512" xmlns="http://www.w3.org/2000/svg"><g><g fill="#020288"><path d="m325.543 92.001h-60c-.492-13.251-19.517-13.248-20.004 0h-59.996c-38.598 0-70 31.402-70 70v210c7.007 185.411 272.969 185.483 280-.002v-209.998c0-38.598-31.402-70-70-70zm-140 20h60v50.861c0 5.523 4.478 10 10 10s10-4.477 10-10v-50.861h60c27.57 0 50 22.43 50 50v75h-95c-5.522 0-10 4.477-10 10s4.478 10 10 10h95v115c0 14.098-2.445 27.842-7.134 40.754h-56.596l-117.447-117.446c-1.876-1.875-4.419-2.929-7.071-2.929h-51.752v-35.378h95c5.522 0 10-4.477 10-10s-4.478-10-10-10h-95v-75c0-27.571 22.43-50.001 50-50.001zm154.741 344.742c-44.863 46.698-124.621 46.701-169.482-.001-43.137-42.64-34.674-89.917-35.259-144.361h47.609l117.446 117.446c1.876 1.875 4.419 2.929 7.071 2.929h51.276c-5.116 8.631-11.362 16.688-18.661 23.987z"/><path d="m204.631 41.088c13.599-13.599 31.68-21.088 50.912-21.088s37.313 7.489 50.912 21.088c1.953 1.953 4.512 2.929 7.071 2.929 8.68.154 13.41-10.919 7.071-17.071-17.375-17.376-40.479-26.946-65.054-26.946s-47.679 9.57-65.055 26.947c-3.905 3.905-3.905 10.237 0 14.142 3.907 3.905 10.237 3.905 14.143-.001z"/><path d="m219.48 55.938c-9.031 9.679 4.452 23.181 14.143 14.142 5.855-5.855 13.64-9.08 21.921-9.08s16.065 3.225 21.92 9.08c1.952 1.953 4.512 2.929 7.071 2.929 8.691.152 13.402-10.922 7.071-17.071-18.982-19.785-53.144-19.784-72.126 0z"/></g><path clip-rule="evenodd" d="m255.543 156.001c16.5 0 30 13.501 30 30v62c-1.56 39.715-58.432 39.738-60 0v-62c0-16.5 13.5-30 30-30z" fill="#fff69b" fill-rule="evenodd"/></g></svg>