<svg id="Capa_1" enable-background="new 0 0 512 512" height="512" viewBox="0 0 512 512" width="512" xmlns="http://www.w3.org/2000/svg"><g><g><path d="m62.683 275.274h206.629v149.361h-206.629z" fill="#b2f0fb"/></g><g fill="#020288"><path d="m502 254.029c-5.523 0-10 4.478-10 10v6.247l-52.998 21.74v-41.341c0-19.125-15.56-34.685-34.685-34.685h-29.609c25.879-18.927 42.718-49.511 42.718-83.954 0-57.321-46.637-103.955-103.962-103.955-41.422 0-77.264 24.349-93.962 59.485-16.698-35.136-52.54-59.485-93.962-59.485-57.325 0-103.962 46.634-103.962 103.955 0 34.443 16.839 65.027 42.718 83.954h-29.61c-19.126.001-34.686 15.561-34.686 34.686v198.558c0 19.125 15.56 34.685 34.685 34.685h369.632c19.125 0 34.685-15.56 34.685-34.685v-41.341l52.998 21.739v6.247c0 5.522 4.477 10 10 10s10-4.478 10-10v-171.85c0-5.522-4.477-10-10-10zm-188.537-205.947c46.297 0 83.962 37.662 83.962 83.955 0 46.292-37.666 83.954-83.962 83.954s-83.962-37.662-83.962-83.954c0-46.293 37.665-83.955 83.962-83.955zm-61.244 167.909h-65.435c13.931-10.189 25.243-23.756 32.718-39.484 7.474 15.729 18.786 29.295 32.717 39.484zm-210.642-83.954c0-46.293 37.665-83.955 83.962-83.955s83.962 37.662 83.962 83.955c0 46.292-37.666 83.954-83.962 83.954s-83.962-37.662-83.962-83.954zm377.425 317.196c0 8.097-6.588 14.685-14.685 14.685h-369.632c-8.097 0-14.685-6.588-14.685-14.685v-198.557c0-8.097 6.587-14.685 14.685-14.685h369.632c8.097 0 14.685 6.588 14.685 14.685zm20-62.959v-72.64l52.998-21.739v116.12z"/><path d="m380.099 280.364h-48.276c-5.523 0-10 4.478-10 10s4.477 10 10 10h48.276c5.523 0 10-4.478 10-10s-4.477-10-10-10z"/><path d="m380.099 321.649h-48.276c-5.523 0-10 4.478-10 10s4.477 10 10 10h48.276c5.523 0 10-4.478 10-10s-4.477-10-10-10z"/><path d="m380.099 361.66h-48.276c-5.523 0-10 4.478-10 10v43.834c0 5.522 4.477 10 10 10h48.276c5.523 0 10-4.478 10-10v-43.834c0-5.522-4.477-10-10-10zm-10 43.834h-28.276v-23.834h28.276z"/></g></g></svg>