<svg id="Capa_1" enable-background="new 0 0 512 512" height="512" viewBox="0 0 512 512" width="512" xmlns="http://www.w3.org/2000/svg"><g><g><path d="m275.261 407-1.279-.002-17.982 20.157-18.027-20.208-.915-.001c-23.855 4.016-41.058 15.41-41.058 28.838 0 16.78 26.863 30.383 60 30.383s60-13.603 60-30.383c0-13.368-17.05-24.72-40.739-28.784z" fill="#a4fcc4"/><g><g><path d="m160.692 304.082h38.29v7.36c0 20.258 16.455 36.681 36.754 36.681h71.869c9.52 0 17.608-7.51 17.934-17.143.312-9.247-6.357-16.982-15.084-18.218l7.374-.327v-.017c8.53-1.208 15.094-8.625 15.094-17.595s-6.564-16.387-15.094-17.595v-.299h-4.54 4.54v-.045c8.53-1.208 15.094-8.625 15.094-17.595 0-8.97-6.564-16.387-15.094-17.594v-.344h-4.54 4.54c8.53-1.208 15.094-8.625 15.094-17.595 0-9.812-7.856-17.767-17.546-17.767h-36.677v-46.849c0-11.286-9.167-20.434-20.475-20.434-11.308 0-20.475 9.149-20.475 20.434v34.828c0 6.639-5.392 12.02-12.044 12.02h-8.819c-9.887 0-17.903 8.005-17.903 17.873v25.484h-38.29v54.737z" fill="#a4fcc4"/></g></g></g><g fill="#020288"><path d="m465.604 45.833h-419.208c-25.583 0-46.396 20.812-46.396 46.395v257.727c0 25.583 20.813 46.396 46.396 46.396h157.733c6.983 0 13.654 2.988 18.303 8.199l26.106 29.263c1.897 2.126 4.612 3.343 7.462 3.343s5.564-1.216 7.462-3.343l26.106-29.264c4.648-5.21 11.319-8.199 18.303-8.199h157.733c25.583 0 46.396-20.813 46.396-46.396v-257.726c0-25.583-20.812-46.395-46.396-46.395zm26.396 304.121c0 14.555-11.841 26.396-26.396 26.396h-157.733c-12.678 0-24.788 5.425-33.227 14.885l-18.644 20.899-18.645-20.898c-8.438-9.46-20.549-14.885-33.227-14.885h-157.732c-14.555-.001-26.396-11.842-26.396-26.397v-257.726c0-14.554 11.841-26.395 26.396-26.395h419.209c14.555 0 26.396 11.841 26.396 26.395v257.726z"/><path d="m256 83.396c-5.522 0-10 4.477-10 10v10.68c0 5.523 4.478 10 10 10s10-4.477 10-10v-10.68c0-5.523-4.478-10-10-10z"/><path d="m214.388 109.067c-3.905-3.905-10.235-3.905-14.143 0-3.905 3.905-3.905 10.237 0 14.142l7.552 7.552c1.953 1.953 4.512 2.929 7.071 2.929s5.118-.977 7.071-2.929c3.905-3.905 3.905-10.237 0-14.142z"/><path d="m297.612 109.067-7.552 7.552c-3.905 3.905-3.905 10.237 0 14.142 1.953 1.953 4.512 2.929 7.071 2.929s5.119-.977 7.071-2.929l7.552-7.552c3.905-3.905 3.905-10.237 0-14.142-3.905-3.906-10.237-3.905-14.142 0z"/></g></g></svg>