<svg id="Layer_1" enable-background="new 0 0 512.01 512.01" height="512" viewBox="0 0 512.01 512.01" width="512" xmlns="http://www.w3.org/2000/svg"><g><path clip-rule="evenodd" d="m312.526 138.939c-84.571-42.078-187.684 22.474-186.52 117.071-.001 71.796 58.202 129.999 129.999 129.999 94.59 1.154 159.158-101.949 117.07-186.521l-24.445 24.445-92.625 32.077 32.076-92.625z" fill="#a4fbc4" fill-rule="evenodd"/><path d="m493.649 211.145-23.074-3.846c-5.187-22.982-13.975-44.785-26.191-64.978l59.699-59.699c5.107-5.107 7.921-11.919 7.921-19.179.001-7.262-2.812-14.074-7.921-19.183l-36.33-36.33c-10.576-10.576-27.785-10.574-38.361 0l-59.698 59.7c-20.187-12.215-41.989-21.003-64.979-26.191l-3.846-23.074c-1.801-10.807-9.97-18.354-19.864-18.354h-50c-9.894 0-18.062 7.548-19.864 18.354l-3.846 23.074c-24.396 5.503-47.405 15.034-68.568 28.406l-19.039-13.599c-8.915-6.367-20.028-5.929-27.025 1.066l-35.355 35.356c-6.996 6.995-7.435 18.107-1.066 27.025l13.599 19.039c-13.375 21.172-22.906 44.178-28.407 68.568l-23.074 3.846c-10.808 1.802-18.355 9.971-18.354 19.864v49.999c-.001 9.896 7.547 18.064 18.355 19.864l23.074 3.846c5.501 24.39 15.034 47.398 28.407 68.568l-13.599 19.039c-6.368 8.915-5.93 20.028 1.066 27.025l35.355 35.354c6.997 6.999 18.11 7.435 27.025 1.067l19.038-13.599c21.165 13.372 44.173 22.904 68.568 28.406l3.846 23.074c1.801 10.808 9.97 18.355 19.864 18.355h50c9.894 0 18.062-7.548 19.864-18.356l3.846-23.073c24.395-5.502 47.404-15.034 68.568-28.406l19.037 13.598c8.917 6.369 20.03 5.933 27.026-1.065l35.357-35.355c6.995-6.997 7.433-18.109 1.065-27.024l-13.599-19.039c13.372-21.17 22.905-44.179 28.406-68.568l23.072-3.846c10.809-1.8 18.357-9.969 18.356-19.863v-50.001c.002-9.894-7.546-18.063-18.354-19.865zm-192.644 44.864c-2.472 59.699-87.536 59.683-90 0-.17-26.555 23.55-47.777 49.908-44.733l-14.358 41.461c-1.253 3.619-.329 7.636 2.378 10.344 2.714 2.721 6.764 3.625 10.344 2.378l41.461-14.358c.176 1.611.267 3.249.267 4.908zm-28.811-16.19 7.614-21.986c5.811 3.636 10.736 8.562 14.372 14.372zm14.275-41.219 8.721-25.182 1.102 4.623c.875 3.669 3.74 6.533 7.409 7.408l18.463 4.401 4.402 18.464c.875 3.669 3.74 6.533 7.409 7.408l4.622 1.102-25.182 8.72c-6.095-11.437-15.508-20.85-26.946-26.944zm93.248-112.709 16.132 16.132-68.503 68.502-13.026-3.105-3.105-13.026zm28.992-28.992 46.406 46.406-14.85 14.849-46.405-46.406zm-51.088 143.9-13.027-3.106-3.105-13.026 68.503-68.502 16.132 16.132zm85.913-178.725c2.731-2.73 7.346-2.73 10.077 0l36.331 36.33c1.331 1.331 2.063 3.119 2.063 5.038 0 1.918-.733 3.708-2.064 5.038l-20.682 20.682-46.406-46.406zm48.47 258.503c-.286.177-.827.432-1.643.567l-29.817 4.97c-4.124.688-7.384 3.867-8.175 7.972-5.118 26.557-15.411 51.403-30.593 73.849-2.341 3.462-2.283 8.014.146 11.415l17.572 24.602c.481.674.684 1.237.76 1.564l-34.743 34.742c-.328-.076-.891-.279-1.564-.761l-24.602-17.571c-3.401-2.429-7.954-2.488-11.416-.145-22.438 15.18-47.283 25.473-73.847 30.592-4.105.791-7.285 4.052-7.972 8.176l-4.97 29.816c-.136.817-.392 1.359-.569 1.645h-49.134c-.178-.285-.433-.827-.569-1.644l-4.97-29.817c-.687-4.124-3.867-7.385-7.972-8.176-26.563-5.119-51.409-15.412-73.847-30.592-3.461-2.344-8.015-2.285-11.416.145l-24.602 17.572c-.673.48-1.235.684-1.563.76l-34.744-34.742c.077-.328.279-.891.761-1.564l17.572-24.602c2.429-3.401 2.487-7.953.146-11.415-15.182-22.445-25.475-47.292-30.593-73.849-.791-4.104-4.052-7.284-8.175-7.972l-29.819-4.97c-.815-.136-1.356-.391-1.642-.567v-49.135c.286-.178.827-.433 1.643-.568l29.817-4.97c4.124-.688 7.384-3.867 8.175-7.972 5.118-26.556 15.411-51.402 30.593-73.849 2.341-3.462 2.283-8.015-.146-11.415l-17.571-24.6c-.481-.674-.685-1.237-.761-1.565l34.743-34.743c.328.077.891.279 1.564.761l24.601 17.571c3.401 2.429 7.954 2.487 11.416.145 22.436-15.179 47.282-25.472 73.848-30.592 4.104-.791 7.284-4.052 7.971-8.175l4.97-29.817c.136-.816.391-1.358.569-1.644h49.135c.178.285.433.827.569 1.643l4.97 29.818c.687 4.123 3.867 7.384 7.971 8.175 21.558 4.155 42.032 11.742 61.004 22.593l-74.076 74.075c-1.07 1.07-1.883 2.369-2.378 3.799l-11.057 31.928c-39.242-7.46-76.984 23.951-76.569 63.969 0 35.841 29.158 65.001 65 65.001 40.013.413 71.436-37.328 63.969-76.571l31.928-11.057c1.43-.495 2.729-1.309 3.799-2.378l74.074-74.073c10.852 18.978 18.439 39.451 22.593 61.002.791 4.104 4.052 7.284 8.175 7.972l29.817 4.97c.816.136 1.358.391 1.644.568z" fill="#020288"/></g></svg>