<svg id="Capa_1" enable-background="new 0 0 512 512" height="512" viewBox="0 0 512 512" width="512" xmlns="http://www.w3.org/2000/svg"><g><g><circle cx="256" cy="206.409" fill="#fff59b" r="118.788"/></g><g fill="#020288"><path d="m384.684 77.48c-34.484-34.419-80.277-53.3-129.036-53.23-48.738.093-94.564 19.346-129.038 54.213-34.486 34.881-53.224 80.944-52.762 129.706.742 78.349 51.275 147.269 125.747 171.498 7.502 2.44 12.542 9.408 12.542 17.339v8.17h-12.531c-5.523 0-10 4.478-10 10s4.477 10 10 10h19.138v22.855c0 12.825 10.434 23.259 23.259 23.259h3.997v6.462c0 5.522 4.477 10 10 10s10-4.478 10-10v-6.462h3.998c12.825 0 23.259-10.434 23.259-23.259v-22.855h19.138c5.523 0 10-4.478 10-10s-4.477-10-10-10h-12.531v-8.164c0-7.942 4.972-14.891 12.373-17.29 36.319-11.777 67.566-34.312 90.364-65.169 23.264-31.486 35.561-68.882 35.561-108.143-.001-48.722-18.993-94.51-53.478-128.93zm-111.428 370.55c0 1.797-1.462 3.259-3.259 3.259h-27.995c-1.797 0-3.259-1.462-3.259-3.259v-22.855h34.513zm32.811-87.335c-15.673 5.083-26.204 19.677-26.204 36.315v8.164h-47.727v-8.17c0-16.618-10.591-31.229-26.355-36.358-66.291-21.567-111.274-82.92-111.934-152.667-.411-43.392 16.275-84.394 46.985-115.455 30.697-31.048 71.487-48.192 114.854-48.274 43.399-.045 84.171 16.746 114.869 47.386 30.699 30.641 47.605 71.401 47.605 114.774.001 70.542-45.046 132.545-112.093 154.285z"/><path d="m83.646 53.54c1.953 1.952 4.512 2.929 7.071 2.929s5.119-.977 7.071-2.929c3.905-3.905 3.905-10.237 0-14.143l-8.666-8.666c-3.905-3.904-10.237-3.904-14.143 0-3.905 3.905-3.905 10.237 0 14.143z"/><path d="m428.353 369.963c-3.905-3.906-10.238-3.905-14.142.001-3.905 3.905-3.905 10.236 0 14.142l8.666 8.665c1.953 1.953 4.512 2.929 7.071 2.929s5.119-.977 7.071-2.93c3.905-3.905 3.905-10.236 0-14.142z"/><path d="m421.282 56.469c2.559 0 5.119-.977 7.071-2.929l8.666-8.666c3.905-3.905 3.905-10.237 0-14.143-3.905-3.904-10.237-3.904-14.143 0l-8.666 8.666c-3.905 3.905-3.905 10.237 0 14.143 1.954 1.952 4.513 2.929 7.072 2.929z"/><path d="m83.647 369.963-8.666 8.665c-3.905 3.905-3.906 10.236 0 14.142 1.953 1.953 4.512 2.93 7.071 2.93s5.118-.977 7.071-2.929l8.666-8.665c3.905-3.905 3.906-10.236 0-14.142-3.904-3.905-10.236-3.905-14.142-.001z"/><path d="m502 201.751h-12.255c-5.523 0-10 4.478-10 10s4.477 10 10 10h12.255c5.523 0 10-4.478 10-10s-4.477-10-10-10z"/><path d="m22.255 201.751h-12.255c-5.523 0-10 4.478-10 10s4.477 10 10 10h12.255c5.523 0 10-4.478 10-10s-4.477-10-10-10z"/><path d="m274.493 224.68-18.493 18.494-18.493-18.494c-3.906-3.903-10.237-3.904-14.142 0-3.905 3.905-3.906 10.237 0 14.143l25.564 25.565c1.875 1.875 4.419 2.929 7.071 2.929s5.196-1.054 7.071-2.929l25.564-25.565c3.905-3.905 3.905-10.237 0-14.143-3.905-3.905-10.237-3.905-14.142 0z"/></g></g></svg>