<svg id="Capa_1" enable-background="new 0 0 512 512" height="512" viewBox="0 0 512 512" width="512" xmlns="http://www.w3.org/2000/svg"><g><g><path d="m413.545 155.257h-326.776c-19.82 0-35.887 16.067-35.887 35.886v284.97c0 19.82 16.067 35.887 35.887 35.887h326.775c19.82 0 35.886-16.067 35.886-35.887v-284.97c.001-19.819-16.066-35.886-35.885-35.886zm-80.517 211.247c0 45.74-37.08 82.82-82.82 82.82h-.102c-45.74 0-82.82-37.08-82.82-82.82v-94.637c0-45.74 37.08-82.82 82.82-82.82h.102c45.74 0 82.82 37.08 82.82 82.82z" fill="#fff59b"/></g><g fill="#020288"><path d="m240.156 249.628v15.595c0 5.523 4.478 10 10 10s10-4.477 10-10v-15.595c0-5.523-4.478-10-10-10s-10 4.477-10 10z"/><path d="m430.399 59.382h-335.111c-10.878 0-19.728-8.833-19.728-19.691.001-10.858 8.85-19.691 19.728-19.691h307.185c5.522 0 10-4.477 10-10s-4.478-10-10-10h-307.185c-21.906 0-39.727 17.805-39.727 39.691s17.821 39.691 39.728 39.691h335.11c5.91 0 10.719 4.797 10.719 10.694s-4.809 10.694-10.719 10.694h-180.243c-5.522 0-10 4.477-10 10v68.806c-46.521 4.98-82.871 44.47-82.871 92.291v94.638c0 51.181 41.639 92.82 92.82 92.82h.102c51.182 0 92.82-41.639 92.82-92.82v-94.638c0-47.821-36.35-87.311-82.871-92.291v-58.806h170.242c16.938 0 30.719-13.769 30.719-30.694s-13.78-30.694-30.718-30.694zm-180.192 379.943h-.102c-40.153 0-72.82-32.667-72.82-72.82v-47.494h145.742v47.494c.001 40.153-32.666 72.82-72.82 72.82zm72.821-167.458v27.144h-145.743v-27.144c0-40.153 32.667-72.82 72.82-72.82h.102c40.154-.001 72.821 32.666 72.821 72.82z"/></g></g></svg>