<svg id="Capa_1" enable-background="new 0 0 512 512" height="512" viewBox="0 0 512 512" width="512" xmlns="http://www.w3.org/2000/svg"><g><path d="m256 75.511c-99.682 0-180.489 80.808-180.489 180.489s80.807 180.489 180.489 180.489 180.489-80.807 180.489-180.489-80.807-180.489-180.489-180.489zm48.58 292.449c-14.88 6.47-31.31 10.06-48.58 10.06s-33.7-3.59-48.58-10.06c-43.22-18.77-73.44-61.84-73.44-111.96 0-67.39 54.63-122.02 122.02-122.02s122.02 54.63 122.02 122.02c0 50.12-30.22 93.19-73.44 111.96z" fill="#e2c4ff"/><g fill="#020288"><path d="m256 123.98c-72.796 0-132.02 59.224-132.02 132.02 0 52.623 31.188 100.171 79.457 121.133.007.003.015.006.022.009 16.61 7.217 34.287 10.877 52.541 10.877s35.931-3.66 52.542-10.878c.007-.003.014-.006.021-.009 48.268-20.962 79.456-68.51 79.456-121.133.001-72.795-59.223-132.019-132.019-132.019zm-13.192 94.357 10.204-22.424 5.861.002 10.212 22.427-13.2-.003zm-25.424 67.509 28.58.006.002 4.311.03 77.42c-9.808-.862-19.37-2.997-28.579-6.384zm16.542-47.511 22.054.005 21.996.005 11.53 27.512-33.543-.007-33.555-.007zm32.07 129.249-.03-75.534-.002-6.194 28.58.006.033 75.34c-9.21 3.385-18.773 5.521-28.581 6.382zm47.682-95.791-19.82-47.294c-.002-.004-.003-.008-.005-.013l-.002-.005c-.002-.005-.004-.009-.006-.014-.02-.047-.04-.094-.061-.141-.009-.021-.019-.042-.028-.063-.009-.02-.018-.041-.027-.061l-19.32-42.43c-1.623-3.565-5.181-5.854-9.099-5.855l-18.731-.004c-.001 0-.001 0-.002 0-3.919 0-7.479 2.29-9.102 5.858l-19.304 42.422c-.008.018-.016.036-.024.053-.011.026-.023.051-.034.077-.013.031-.027.062-.04.093-.008.019-.016.038-.024.057l-19.895 47.51c-.547 1.305-.802 2.689-.774 4.063l.033 75.462c-32.893-20.175-53.433-56.17-53.433-95.508 0-61.768 50.252-112.02 112.02-112.02s112.02 50.252 112.02 112.02c0 39.344-20.546 75.344-53.447 95.515l-.033-75.553c.014-.577-.1-2.533-.862-4.169z"/><path d="m502 204.676h-14.572c-5.964-27.086-16.533-52.587-31.506-76.014l10.318-10.318c3.905-3.905 3.905-10.237 0-14.143l-58.441-58.441c-3.905-3.903-10.235-3.905-14.143 0l-10.318 10.318c-23.427-14.973-48.928-25.542-76.014-31.506v-14.572c0-5.522-4.478-10-10-10h-82.648c-5.523 0-10 4.478-10 10v14.572c-27.086 5.964-52.587 16.533-76.014 31.506l-10.319-10.318c-3.905-3.904-10.237-3.904-14.142 0l-58.441 58.441c-3.905 3.905-3.905 10.237 0 14.143l10.318 10.318c-14.972 23.427-25.542 48.927-31.506 76.014h-14.572c-5.523 0-10 4.478-10 10v82.648c0 5.522 4.477 10 10 10h14.572c5.964 27.087 16.534 52.587 31.506 76.014l-10.318 10.318c-3.905 3.905-3.905 10.237 0 14.143l58.441 58.441c3.906 3.904 10.238 3.905 14.142 0l10.318-10.318c23.427 14.973 48.928 25.542 76.014 31.506v14.572c0 5.522 4.477 10 10 10h82.648c5.522 0 10-4.478 10-10v-14.572c27.086-5.964 52.587-16.533 76.014-31.506l10.318 10.318c3.906 3.904 10.236 3.904 14.143 0l58.441-58.441c3.905-3.905 3.905-10.237 0-14.143l-10.318-10.318c14.973-23.427 25.542-48.928 31.506-76.014h14.573c5.522 0 10-4.478 10-10v-82.648c0-5.523-4.478-10-10-10zm-10 82.648h-12.753c-4.825 0-8.962 3.445-9.835 8.191-5.534 30.09-17.169 58.162-34.58 83.437-2.736 3.973-2.247 9.332 1.164 12.744l9.031 9.031-44.3 44.3-9.031-9.031c-3.412-3.413-8.773-3.9-12.744-1.164-25.274 17.411-53.347 29.046-83.437 34.58-4.746.873-8.191 5.01-8.191 9.835v12.753h-62.648v-12.753c0-4.825-3.445-8.962-8.191-9.835-30.091-5.534-58.163-17.169-83.438-34.58-3.973-2.736-9.333-2.247-12.744 1.164l-9.031 9.031-44.299-44.3 9.031-9.031c3.411-3.411 3.9-8.771 1.164-12.744-17.411-25.274-29.046-53.346-34.58-83.437-.873-4.746-5.01-8.191-9.835-8.191h-12.753v-62.648h12.753c4.825 0 8.962-3.445 9.835-8.191 5.534-30.091 17.169-58.162 34.58-83.437 2.737-3.973 2.248-9.333-1.164-12.744l-9.031-9.031 44.299-44.3 9.031 9.031c3.41 3.409 8.77 3.9 12.744 1.164 25.274-17.411 53.347-29.046 83.438-34.58 4.746-.873 8.191-5.01 8.191-9.835v-12.753h62.648v12.753c0 4.825 3.445 8.962 8.191 9.835 30.09 5.534 58.162 17.169 83.437 34.58 3.971 2.735 9.332 2.246 12.744-1.164l9.031-9.031 44.3 44.3-9.031 9.031c-3.411 3.412-3.9 8.771-1.164 12.744 17.411 25.274 29.046 53.347 34.58 83.437.873 4.746 5.01 8.191 9.835 8.191h12.753z"/></g></g></svg>