<?xml version="1.0" encoding="UTF-8" standalone="no"?>
<!DOCTYPE svg PUBLIC "-//W3C//DTD SVG 1.1//EN" "http://www.w3.org/Graphics/SVG/1.1/DTD/svg11.dtd">
<svg width="100%" height="100%" viewBox="0 0 512 512" version="1.1" xmlns="http://www.w3.org/2000/svg" xmlns:xlink="http://www.w3.org/1999/xlink" xml:space="preserve" xmlns:serif="http://www.serif.com/" style="fill-rule:evenodd;clip-rule:evenodd;stroke-linejoin:round;stroke-miterlimit:2;">
    <g>
        <g>
            <path d="M164.828,198.759L209.624,121.17L30,121.17C19,121.17 10,130.17 10,141.17L10,281.17L142,281.17C142,251.026 150.336,222.829 164.828,198.759Z" style="fill:rgb(116,200,104);"/>
            <path d="M394.376,121.17L439.172,198.759C453.664,222.829 462,251.026 462,281.17L502,281.17L502,141.17C502,130.171 493,121.17 482.001,121.17L394.376,121.17Z" style="fill:rgb(116,200,104);"/>
        </g>
        <g>
            <path d="M302,151.169C230.317,151.169 172,209.486 172,281.169C179.14,453.632 424.886,453.582 432,281.168C432,209.487 373.683,151.169 302,151.169ZM412,281.169C412,284.927 411.81,288.642 411.44,292.304L322,240.666L382.17,205.927C400.66,225.615 412,252.093 412,281.169ZM327.077,295.649L302,310.127L276.922,295.648L276.922,266.691L302,252.213L327.077,266.691L327.077,295.649ZM366.321,191.983L276.922,243.597L276.922,174.053C307.305,166.56 342.158,173.962 366.321,191.983ZM256.922,180.835L256.922,284.102L196.697,249.331C205.953,218.778 228.17,193.803 256.922,180.835ZM192,281.169C192,277.411 192.19,273.697 192.559,270.035L282,321.674L221.83,356.413C203.341,336.724 192,310.246 192,281.169ZM237.68,370.356L327.077,318.743L327.077,388.286C296.694,395.778 261.843,388.377 237.68,370.356ZM347.077,381.505L347.077,278.238L407.302,313.009C398.047,343.562 375.829,368.537 347.077,381.505Z" style="fill:rgb(55,80,90);fill-rule:nonzero;"/>
            <path d="M482,111.17L400.149,111.17L382.74,81.018C377.822,72.497 369.336,61.169 352.5,61.169L251.5,61.169C234.664,61.169 226.178,72.496 221.26,81.017L203.851,111.17L135,111.17L135,101.169C135,84.627 121.542,71.17 105,71.17L70,71.17C53.458,71.17 40,84.627 40,101.169L40,111.17L30,111.17C13.458,111.17 0,124.628 0,141.169L0,381.17C0,397.712 13.458,411.17 30,411.17L192.572,411.17C252.511,464.056 351.502,464.045 411.428,411.17L482,411.17C498.542,411.17 512,397.712 512,381.17L512,141.169C512,124.628 498.542,111.17 482,111.17ZM238.58,91.017C243.359,82.739 246.808,81.169 251.5,81.169L352.5,81.169C357.192,81.169 360.641,82.738 365.42,91.017L391.949,136.967C340.324,102.914 263.674,102.916 212.051,136.967L238.58,91.017ZM60,101.169C60,95.655 64.486,91.17 70,91.17L105,91.17C110.514,91.17 115,95.655 115,101.169L115,111.17L60,111.17L60,101.169ZM20,381.17L20,141.169C20,135.655 24.486,131.17 30,131.17L192.303,131.17L154.775,196.17C154.635,196.412 154.507,196.659 154.389,196.907C118.728,255.943 127.122,340.461 172.484,391.17L30,391.17C24.486,391.17 20,386.684 20,381.17ZM152,281.169C152,198.459 219.29,131.169 302,131.169C500.995,139.409 500.937,422.959 301.999,431.169C219.29,431.169 152,363.879 152,281.169ZM492,381.17C492,386.684 487.514,391.17 482,391.17L431.515,391.17C476.883,340.458 485.267,255.926 449.605,196.898C449.489,196.652 449.362,196.409 449.224,196.17L411.696,131.17L482,131.17C487.514,131.17 492,135.655 492,141.169L492,381.17Z" style="fill:rgb(55,80,90);fill-rule:nonzero;"/>
            <path d="M105,151.17L70,151.17C30.191,152.823 30.222,209.532 70,211.17L105,211.17C144.809,209.518 144.778,152.808 105,151.17ZM105,191.17L70,191.17C56.73,190.619 56.741,171.716 70,171.17L105,171.17C118.27,171.722 118.259,190.624 105,191.17Z" style="fill:rgb(55,80,90);fill-rule:nonzero;"/>
        </g>
    </g>
</svg>
