<?xml version="1.0" encoding="UTF-8" standalone="no"?>
<!DOCTYPE svg PUBLIC "-//W3C//DTD SVG 1.1//EN" "http://www.w3.org/Graphics/SVG/1.1/DTD/svg11.dtd">
<svg width="100%" height="100%" viewBox="0 0 512 512" version="1.1" xmlns="http://www.w3.org/2000/svg" xmlns:xlink="http://www.w3.org/1999/xlink" xml:space="preserve" xmlns:serif="http://www.serif.com/" style="fill-rule:evenodd;clip-rule:evenodd;stroke-linejoin:round;stroke-miterlimit:2;">
    <g>
        <path d="M312.52,138.936C227.951,96.859 124.84,161.41 126.004,256.005C126.003,327.8 184.204,386.001 256,386.001C350.588,387.155 415.155,284.054 373.068,199.484L348.623,223.929L256,256.005L288.075,163.382L312.52,138.936Z" style="fill:rgb(116,200,104);"/>
        <path d="M493.639,211.141L470.566,207.295C465.379,184.313 456.591,162.511 444.375,142.318L504.073,82.62C509.18,77.513 511.994,70.702 511.994,63.442C511.995,56.18 509.182,49.368 504.073,44.259L467.744,7.93C457.168,-2.646 439.959,-2.644 429.384,7.93L369.687,67.629C349.5,55.414 327.699,46.626 304.709,41.438L300.863,18.365C299.062,7.558 290.893,0.011 281,0.011L231,0.011C221.107,0.011 212.939,7.559 211.137,18.365L207.291,41.438C182.895,46.941 159.887,56.472 138.724,69.844L119.686,56.245C110.771,49.878 99.658,50.316 92.661,57.311L57.307,92.666C50.311,99.661 49.872,110.773 56.241,119.691L69.84,138.729C56.465,159.901 46.934,182.906 41.433,207.296L18.36,211.142C7.552,212.944 0.005,221.113 0.006,231.005L0.006,281.004C0.005,290.899 7.553,299.067 18.361,300.867L41.434,304.713C46.935,329.103 56.468,352.11 69.841,373.28L56.242,392.318C49.874,401.233 50.312,412.346 57.308,419.343L92.662,454.696C99.659,461.695 110.772,462.131 119.687,455.763L138.724,442.164C159.889,455.536 182.896,465.068 207.291,470.57L211.137,493.643C212.938,504.451 221.107,511.998 231,511.998L281,511.998C290.893,511.998 299.061,504.45 300.863,493.642L304.709,470.57C329.104,465.068 352.112,455.536 373.276,442.164L392.312,455.762C401.229,462.131 412.342,461.695 419.338,454.697L454.694,419.343C461.689,412.346 462.127,401.234 455.759,392.319L442.16,373.281C455.532,352.111 465.065,329.103 470.566,304.714L493.637,300.868C504.446,299.068 511.994,290.899 511.993,281.006L511.993,231.005C511.995,221.112 504.447,212.943 493.639,211.141ZM300.999,256.004C298.527,315.702 213.465,315.686 211.001,256.004C210.831,229.45 234.55,208.228 260.908,211.272L246.55,252.732C245.297,256.351 246.221,260.368 248.928,263.076C251.642,265.797 255.692,266.701 259.272,265.454L300.732,251.096C300.908,252.707 300.999,254.345 300.999,256.004ZM272.189,239.814L279.803,217.829C285.613,221.465 290.538,226.391 294.174,232.2L272.189,239.814ZM286.463,198.596L295.184,173.415L296.286,178.038C297.161,181.706 300.026,184.57 303.695,185.445L322.158,189.846L326.56,208.31C327.435,211.979 330.3,214.843 333.968,215.718L338.59,216.82L313.409,225.54C307.314,214.103 297.901,204.69 286.463,198.596ZM379.71,85.889L395.841,102.021L327.34,170.522L314.314,167.417L311.209,154.391L379.71,85.889ZM408.701,56.898L455.106,103.303L440.256,118.152L393.852,71.747L408.701,56.898ZM357.614,200.795L344.587,197.689L341.482,184.663L409.984,116.163L426.116,132.294L357.614,200.795ZM443.525,22.074C446.256,19.344 450.871,19.344 453.602,22.074L489.932,58.403C491.263,59.734 491.995,61.522 491.995,63.441C491.995,65.359 491.262,67.149 489.931,68.479L469.25,89.16L422.845,42.755L443.525,22.074ZM491.994,280.572C491.708,280.749 491.167,281.004 490.351,281.139L460.535,286.108C456.411,286.796 453.151,289.975 452.36,294.08C447.242,320.637 436.949,345.482 421.768,367.928C419.427,371.39 419.485,375.942 421.914,379.343L439.485,403.944C439.966,404.618 440.169,405.181 440.245,405.508L405.503,440.249C405.175,440.173 404.612,439.97 403.939,439.488L379.338,421.918C375.937,419.489 371.384,419.43 367.922,421.773C345.484,436.952 320.64,447.245 294.076,452.364C289.971,453.155 286.791,456.416 286.104,460.54L281.135,490.355C280.999,491.172 280.743,491.714 280.566,492L231.432,492C231.254,491.715 230.999,491.173 230.863,490.356L225.894,460.54C225.207,456.416 222.027,453.155 217.922,452.364C191.359,447.245 166.514,436.952 144.076,421.773C140.615,419.429 136.061,419.488 132.66,421.918L108.059,439.489C107.386,439.969 106.824,440.173 106.496,440.249L71.753,405.508C71.83,405.18 72.032,404.617 72.514,403.944L90.085,379.343C92.514,375.942 92.572,371.39 90.231,367.928C75.05,345.483 64.757,320.637 59.639,294.08C58.848,289.976 55.587,286.796 51.464,286.108L21.646,281.139C20.831,281.003 20.29,280.748 20.004,280.572L20.004,231.437C20.29,231.259 20.831,231.004 21.647,230.869L51.463,225.9C55.587,225.212 58.847,222.033 59.638,217.928C64.756,191.372 75.049,166.527 90.23,144.08C92.571,140.618 92.513,136.065 90.084,132.665L72.514,108.066C72.033,107.392 71.829,106.829 71.753,106.501L106.495,71.759C106.823,71.836 107.386,72.038 108.059,72.52L132.659,90.09C136.06,92.519 140.613,92.577 144.075,90.235C166.511,75.057 191.356,64.764 217.922,59.644C222.026,58.853 225.206,55.592 225.893,51.469L230.862,21.653C230.998,20.837 231.253,20.295 231.431,20.009L280.566,20.009C280.744,20.294 280.999,20.836 281.135,21.652L286.104,51.469C286.791,55.592 289.971,58.853 294.075,59.644C315.633,63.799 336.106,71.386 355.078,82.236L281.004,156.31C279.934,157.38 279.121,158.679 278.626,160.109L267.569,192.036C228.328,184.576 190.586,215.987 191.001,256.004C191.001,291.844 220.159,321.004 256,321.004C296.012,321.417 327.435,283.676 319.968,244.434L351.895,233.377C353.325,232.882 354.624,232.068 355.694,230.999L429.767,156.928C440.618,175.906 448.205,196.378 452.359,217.929C453.15,222.033 456.411,225.213 460.534,225.901L490.35,230.87C491.166,231.006 491.708,231.261 491.994,231.438L491.994,280.572Z" style="fill:rgb(55,80,90);fill-rule:nonzero;"/>
    </g>
</svg>
