<?xml version="1.0" encoding="UTF-8" standalone="no"?>
<!DOCTYPE svg PUBLIC "-//W3C//DTD SVG 1.1//EN" "http://www.w3.org/Graphics/SVG/1.1/DTD/svg11.dtd">
<svg width="100%" height="100%" viewBox="0 0 512 512" version="1.1" xmlns="http://www.w3.org/2000/svg" xmlns:xlink="http://www.w3.org/1999/xlink" xml:space="preserve" xmlns:serif="http://www.serif.com/" style="fill-rule:evenodd;clip-rule:evenodd;stroke-linejoin:round;stroke-miterlimit:2;">
    <g>
        <path d="M256,75.511C156.318,75.511 75.511,156.319 75.511,256C75.511,355.681 156.318,436.489 256,436.489C355.682,436.489 436.489,355.682 436.489,256C436.489,156.318 355.682,75.511 256,75.511ZM304.58,367.96C289.7,374.43 273.27,378.02 256,378.02C238.73,378.02 222.3,374.43 207.42,367.96C164.2,349.19 133.98,306.12 133.98,256C133.98,188.61 188.61,133.98 256,133.98C323.39,133.98 378.02,188.61 378.02,256C378.02,306.12 347.8,349.19 304.58,367.96Z" style="fill:rgb(116,200,104);fill-rule:nonzero;"/>
        <g>
            <path d="M256,123.98C183.204,123.98 123.98,183.204 123.98,256C123.98,308.623 155.168,356.171 203.437,377.133C203.444,377.136 203.452,377.139 203.459,377.142C220.069,384.359 237.746,388.019 256,388.019C274.254,388.019 291.931,384.359 308.542,377.141C308.549,377.138 308.556,377.135 308.563,377.132C356.831,356.17 388.019,308.622 388.019,255.999C388.02,183.204 328.796,123.98 256,123.98ZM242.808,218.337L253.012,195.913L258.873,195.915L269.085,218.342L255.885,218.339L242.808,218.337ZM217.384,285.846L245.964,285.852L245.966,290.163L245.996,367.583C236.188,366.721 226.626,364.586 217.417,361.199L217.384,285.846ZM233.926,238.335L255.98,238.34L277.976,238.345L289.506,265.857L255.963,265.85L222.408,265.843L233.926,238.335ZM265.996,367.584L265.966,292.05L265.964,285.856L294.544,285.862L294.577,361.202C285.367,364.587 275.804,366.723 265.996,367.584ZM313.678,271.793L293.858,224.499C293.856,224.495 293.855,224.491 293.853,224.486L293.851,224.481C293.849,224.476 293.847,224.472 293.845,224.467C293.825,224.42 293.805,224.373 293.784,224.326C293.775,224.305 293.765,224.284 293.756,224.263C293.747,224.243 293.738,224.222 293.729,224.202L274.409,181.772C272.786,178.207 269.228,175.918 265.31,175.917L246.579,175.913L246.577,175.913C242.658,175.913 239.098,178.203 237.475,181.771L218.171,224.193C218.163,224.211 218.155,224.229 218.147,224.246C218.136,224.272 218.124,224.297 218.113,224.323C218.1,224.354 218.086,224.385 218.073,224.416C218.065,224.435 218.057,224.454 218.049,224.473L198.154,271.983C197.607,273.288 197.352,274.672 197.38,276.046L197.413,351.508C164.52,331.333 143.98,295.338 143.98,256C143.98,194.232 194.232,143.98 256,143.98C317.768,143.98 368.02,194.232 368.02,256C368.02,295.344 347.474,331.344 314.573,351.515L314.54,275.962C314.554,275.385 314.44,273.429 313.678,271.793Z" style="fill:rgb(55,80,90);fill-rule:nonzero;"/>
            <path d="M502,204.676L487.428,204.676C481.464,177.59 470.895,152.089 455.922,128.662L466.24,118.344C470.145,114.439 470.145,108.107 466.24,104.201L407.799,45.76C403.894,41.857 397.564,41.855 393.656,45.76L383.338,56.078C359.911,41.105 334.41,30.536 307.324,24.572L307.324,10C307.324,4.478 302.846,-0 297.324,-0L214.676,-0C209.153,-0 204.676,4.478 204.676,10L204.676,24.572C177.59,30.536 152.089,41.105 128.662,56.078L118.343,45.76C114.438,41.856 108.106,41.856 104.201,45.76L45.76,104.201C41.855,108.106 41.855,114.438 45.76,118.344L56.078,128.662C41.106,152.089 30.536,177.589 24.572,204.676L10,204.676C4.477,204.676 -0,209.154 -0,214.676L-0,297.324C-0,302.846 4.477,307.324 10,307.324L24.572,307.324C30.536,334.411 41.106,359.911 56.078,383.338L45.76,393.656C41.855,397.561 41.855,403.893 45.76,407.799L104.201,466.24C108.107,470.144 114.439,470.145 118.343,466.24L128.661,455.922C152.088,470.895 177.589,481.464 204.675,487.428L204.675,502C204.675,507.522 209.152,512 214.675,512L297.323,512C302.845,512 307.323,507.522 307.323,502L307.323,487.428C334.409,481.464 359.91,470.895 383.337,455.922L393.655,466.24C397.561,470.144 403.891,470.144 407.798,466.24L466.239,407.799C470.144,403.894 470.144,397.562 466.239,393.656L455.921,383.338C470.894,359.911 481.463,334.41 487.427,307.324L502,307.324C507.522,307.324 512,302.846 512,297.324L512,214.676C512,209.153 507.522,204.676 502,204.676ZM492,287.324L479.247,287.324C474.422,287.324 470.285,290.769 469.412,295.515C463.878,325.605 452.243,353.677 434.832,378.952C432.096,382.925 432.585,388.284 435.996,391.696L445.027,400.727L400.727,445.027L391.696,435.996C388.284,432.583 382.923,432.096 378.952,434.832C353.678,452.243 325.605,463.878 295.515,469.412C290.769,470.285 287.324,474.422 287.324,479.247L287.324,492L224.676,492L224.676,479.247C224.676,474.422 221.231,470.285 216.485,469.412C186.394,463.878 158.322,452.243 133.047,434.832C129.074,432.096 123.714,432.585 120.303,435.996L111.272,445.027L66.973,400.727L76.004,391.696C79.415,388.285 79.904,382.925 77.168,378.952C59.757,353.678 48.122,325.606 42.588,295.515C41.715,290.769 37.578,287.324 32.753,287.324L20,287.324L20,224.676L32.753,224.676C37.578,224.676 41.715,221.231 42.588,216.485C48.122,186.394 59.757,158.323 77.168,133.048C79.905,129.075 79.416,123.715 76.004,120.304L66.973,111.273L111.272,66.973L120.303,76.004C123.713,79.413 129.073,79.904 133.047,77.168C158.321,59.757 186.394,48.122 216.485,42.588C221.231,41.715 224.676,37.578 224.676,32.753L224.676,20L287.324,20L287.324,32.753C287.324,37.578 290.769,41.715 295.515,42.588C325.605,48.122 353.677,59.757 378.952,77.168C382.923,79.903 388.284,79.414 391.696,76.004L400.727,66.973L445.027,111.273L435.996,120.304C432.585,123.716 432.096,129.075 434.832,133.048C452.243,158.322 463.878,186.395 469.412,216.485C470.285,221.231 474.422,224.676 479.247,224.676L492,224.676L492,287.324Z" style="fill:rgb(55,80,90);fill-rule:nonzero;"/>
        </g>
    </g>
</svg>
