<?xml version="1.0" encoding="UTF-8" standalone="no"?>
<!DOCTYPE svg PUBLIC "-//W3C//DTD SVG 1.1//EN" "http://www.w3.org/Graphics/SVG/1.1/DTD/svg11.dtd">
<svg width="100%" height="100%" viewBox="0 0 512 512" version="1.1" xmlns="http://www.w3.org/2000/svg" xmlns:xlink="http://www.w3.org/1999/xlink" xml:space="preserve" xmlns:serif="http://www.serif.com/" style="fill-rule:evenodd;clip-rule:evenodd;stroke-linejoin:round;stroke-miterlimit:2;">
    <g>
        <g>
            <rect x="99.319" y="324.393" width="313.362" height="74.742" style="fill:rgb(116,200,104);fill-rule:nonzero;"/>
        </g>
        <g>
            <path d="M295.451,164.052C293.553,161.707 290.697,160.345 287.68,160.345C284.663,160.345 281.807,161.707 279.909,164.052L232.669,222.392L213.245,202.967C211.37,201.092 208.826,200.038 206.174,200.038C203.522,200.038 200.978,201.092 199.103,202.967L125.556,276.515C122.696,279.375 121.841,283.676 123.389,287.413C124.937,291.149 128.583,293.586 132.628,293.586L379.379,293.586C383.233,293.586 386.745,291.37 388.405,287.892C390.065,284.413 389.576,280.289 387.151,277.293L295.451,164.052ZM156.767,273.586L206.172,224.181L226.379,244.388C228.384,246.393 231.146,247.446 233.974,247.303C236.804,247.155 239.439,245.812 241.222,243.61L287.68,186.236L358.411,273.587L156.767,273.587L156.767,273.586Z" style="fill:rgb(55,80,90);fill-rule:nonzero;"/>
            <path d="M212.726,171.564C233.64,171.564 250.655,154.549 250.655,133.635C250.655,112.721 233.64,95.705 212.726,95.705C191.812,95.705 174.797,112.721 174.797,133.635C174.797,154.549 191.812,171.564 212.726,171.564ZM212.726,115.706C222.612,115.706 230.655,123.749 230.655,133.636C230.655,143.522 222.612,151.565 212.726,151.565C202.84,151.565 194.797,143.522 194.797,133.636C194.797,123.749 202.84,115.706 212.726,115.706Z" style="fill:rgb(55,80,90);fill-rule:nonzero;"/>
            <path d="M478.227,48.507L33.773,48.507C15.15,48.507 -0,63.657 -0,82.28L-0,385.361C-0,403.984 15.15,419.134 33.773,419.134L163.14,419.134L163.14,443.492L113.609,443.492C108.086,443.492 103.609,447.97 103.609,453.492C103.609,459.014 108.086,463.492 113.609,463.492L398.391,463.492C403.914,463.492 408.391,459.014 408.391,453.492C408.391,447.97 403.914,443.492 398.391,443.492L348.86,443.492L348.86,419.134L478.227,419.134C496.85,419.134 512,403.984 512,385.361L512,82.28C512,63.657 496.85,48.507 478.227,48.507ZM328.86,443.493L183.14,443.493L183.14,419.135L328.86,419.135L328.86,443.493ZM492,385.361C492,392.956 485.821,399.134 478.227,399.134L33.773,399.134C26.179,399.134 20,392.955 20,385.361L20,82.28C20,74.685 26.179,68.507 33.773,68.507L478.227,68.507C485.821,68.507 492,74.686 492,82.28L492,385.361Z" style="fill:rgb(55,80,90);fill-rule:nonzero;"/>
        </g>
    </g>
</svg>
