<?xml version="1.0" encoding="UTF-8" standalone="no"?>
<!DOCTYPE svg PUBLIC "-//W3C//DTD SVG 1.1//EN" "http://www.w3.org/Graphics/SVG/1.1/DTD/svg11.dtd">
<svg width="100%" height="100%" viewBox="0 0 512 512" version="1.1" xmlns="http://www.w3.org/2000/svg" xmlns:xlink="http://www.w3.org/1999/xlink" xml:space="preserve" xmlns:serif="http://www.serif.com/" style="fill-rule:evenodd;clip-rule:evenodd;stroke-linejoin:round;stroke-miterlimit:2;">
    <g>
        <path d="M379.046,133.004L301.001,87.944L256.001,113.925L211,87.944L132.955,133.004L132.955,184.966L87.954,210.948L87.954,301.064L132.955,327.046L132.955,379.008L211,424.068L256.001,398.087L301.001,424.068L379.046,379.008L379.046,327.046L424.047,301.064L424.047,210.948L379.046,184.966L379.046,133.004ZM211,230.026L256.001,204.044L301.001,230.026L301.001,281.988L256.001,307.97L211,281.988L211,230.026Z" style="fill:rgb(116,200,104);"/>
        <g>
            <path d="M306.002,415.409L261.001,389.427C257.907,387.64 254.094,387.64 251,389.427L205.999,415.409C202.905,417.195 200.999,420.497 200.999,424.069L200.999,476.031C200.999,479.603 202.905,482.905 205.999,484.691L250.881,510.604C253.87,512.465 258.131,512.467 261.12,510.604L306.002,484.691C309.096,482.905 311.002,479.603 311.002,476.031L311.002,424.069C311.002,420.497 309.096,417.195 306.002,415.409ZM256.001,409.634L281.001,424.068L256.001,438.502L231,424.068L256.001,409.634ZM221,441.389L246,455.824L246,484.691L221,470.257L221,441.389ZM266.001,484.691L266.001,455.824L291.001,441.389L291.001,470.257L266.001,484.691Z" style="fill:rgb(55,80,90);fill-rule:nonzero;"/>
            <path d="M37.953,193.627L82.835,219.54C84.324,220.439 86.139,220.953 87.954,220.949C89.769,220.952 91.583,220.44 93.073,219.54L137.955,193.627C141.049,191.841 142.955,188.539 142.955,184.967L142.955,133.005C142.955,129.433 141.049,126.131 137.955,124.345L92.954,98.363C89.86,96.576 86.048,96.576 82.954,98.363L37.953,124.345C34.859,126.131 32.953,129.433 32.953,133.005L32.953,184.967C32.953,188.539 34.859,191.84 37.953,193.627ZM52.953,150.324L77.954,164.759L77.954,193.626L52.953,179.192L52.953,150.324ZM97.954,193.627L97.954,164.76L122.955,150.325L122.955,179.193L97.954,193.627ZM87.954,118.57L112.954,133.004L87.954,147.438L62.953,133.004L87.954,118.57Z" style="fill:rgb(55,80,90);fill-rule:nonzero;"/>
            <path d="M474.048,124.344L429.047,98.362C425.953,96.575 422.141,96.575 419.047,98.362L374.046,124.344C370.952,126.13 369.046,129.432 369.046,133.004L369.046,184.966C369.046,188.538 370.952,191.84 374.046,193.626L418.928,219.539C421.917,221.4 426.177,221.402 429.166,219.539L474.048,193.626C477.142,191.84 479.048,188.538 479.048,184.966L479.048,133.004C479.048,129.432 477.142,126.13 474.048,124.344ZM424.047,118.57L449.048,133.004L424.047,147.438L399.047,133.004L424.047,118.57ZM389.046,150.324L414.047,164.759L414.047,193.626L389.046,179.192L389.046,150.324ZM434.047,193.627L434.047,164.76L459.048,150.325L459.048,179.193L434.047,193.627Z" style="fill:rgb(55,80,90);fill-rule:nonzero;"/>
            <path d="M474.048,318.386L429.047,292.404C425.953,290.617 422.141,290.617 419.047,292.404L379.046,315.5L311.002,276.215L311.002,230.026C311.002,226.454 309.096,223.152 306.002,221.366L266.001,198.27L266.001,119.7L306.002,96.605C309.096,94.819 311.002,91.517 311.002,87.945L311.002,35.982C311.002,32.41 309.096,29.108 306.002,27.322L261.001,1.341C257.907,-0.446 254.094,-0.446 251,1.341L205.999,27.322C202.905,29.108 200.999,32.41 200.999,35.982L200.999,87.945C200.999,91.517 202.905,94.819 205.999,96.605L246,119.7L246,198.27L205.999,221.366C202.905,223.152 200.999,226.454 200.999,230.026L200.999,276.215L132.955,315.5L92.954,292.404C89.86,290.617 86.048,290.617 82.954,292.404L37.953,318.386C34.859,320.172 32.953,323.474 32.953,327.046L32.953,379.008C32.953,382.58 34.859,385.882 37.953,387.668L82.835,413.581C85.824,415.442 90.084,415.444 93.073,413.581L137.955,387.668C141.049,385.882 142.955,382.58 142.955,379.008L142.955,332.819L211,293.534L250.881,316.56C252.37,317.458 254.185,317.974 256.001,317.969C257.816,317.974 259.63,317.458 261.12,316.56L301.001,293.534L369.046,332.819L369.046,379.008C369.046,382.58 370.952,385.882 374.046,387.668L418.928,413.581C421.917,415.443 426.177,415.444 429.166,413.581L474.048,387.668C477.142,385.882 479.048,382.58 479.048,379.008L479.048,327.046C479.048,323.474 477.142,320.173 474.048,318.386ZM424.047,312.612L449.048,327.046L424.047,341.48L399.047,327.046L424.047,312.612ZM221,247.346L246,261.781L246,290.648L221,276.214L221,247.346ZM256.001,215.591L281.001,230.025L256.001,244.459L231,230.025L256.001,215.591ZM266.001,261.781L291.001,247.346L291.001,276.214L266.001,290.648L266.001,261.781ZM266.001,96.605L266.001,67.737L291.001,53.303L291.001,82.172L266.001,96.605ZM256.001,21.547L281.001,35.982L256.001,50.416L230.999,35.982L256.001,21.547ZM221,82.171L221,53.303L246,67.737L246,96.605L221,82.171ZM87.954,312.612L112.954,327.046L87.954,341.48L62.953,327.046L87.954,312.612ZM52.953,344.367L77.954,358.802L77.954,387.669L52.953,373.235L52.953,344.367ZM122.955,373.235L97.954,387.669L97.954,358.802L122.955,344.367L122.955,373.235ZM389.046,344.367L414.047,358.802L414.047,387.669L389.046,373.235L389.046,344.367ZM434.047,387.669L434.047,358.802L459.048,344.367L459.048,373.235L434.047,387.669Z" style="fill:rgb(55,80,90);fill-rule:nonzero;"/>
        </g>
    </g>
</svg>
