<?xml version="1.0" encoding="UTF-8" standalone="no"?>
<!DOCTYPE svg PUBLIC "-//W3C//DTD SVG 1.1//EN" "http://www.w3.org/Graphics/SVG/1.1/DTD/svg11.dtd">
<svg width="100%" height="100%" viewBox="0 0 512 512" version="1.1" xmlns="http://www.w3.org/2000/svg" xmlns:xlink="http://www.w3.org/1999/xlink" xml:space="preserve" xmlns:serif="http://www.serif.com/" style="fill-rule:evenodd;clip-rule:evenodd;stroke-linejoin:round;stroke-miterlimit:2;">
    <g>
        <g>
            <g>
                <g>
                    <g>
                        <g>
                            <path d="M357.885,232.003L357.885,216.513C357.885,211.226 354.309,206.609 349.19,205.286L340.531,203.049C338.484,194.858 335.231,186.907 330.773,179.476L337.049,169.683C339.989,165.096 339.338,159.08 335.486,155.228L325.03,144.772C321.177,140.919 315.162,140.269 310.575,143.209L300.782,149.485C293.351,145.027 285.4,141.774 277.209,139.727L274.972,131.069C273.65,125.95 269.032,122.374 263.745,122.374L248.254,122.374C242.967,122.374 238.35,125.95 237.027,131.069L234.79,139.727C226.599,141.774 218.648,145.027 211.217,149.485L201.424,143.209C196.837,140.269 190.821,140.92 186.969,144.772L176.513,155.228C172.66,159.081 172.01,165.096 174.95,169.683L181.226,179.476C176.768,186.907 173.515,194.858 171.468,203.049L162.809,205.286C157.69,206.608 154.114,211.226 154.114,216.513L154.114,232.003C154.114,237.29 157.69,241.907 162.809,243.23L171.468,245.467C173.515,253.658 176.768,261.609 181.226,269.04L174.95,278.833C172.01,283.42 172.661,289.436 176.513,293.288L186.969,303.744C190.822,307.597 196.837,308.247 201.424,305.307L211.217,299.031C218.648,303.489 226.599,306.742 234.79,308.789L237.027,317.447C238.349,322.566 242.967,326.142 248.254,326.142L263.745,326.142C269.032,326.142 273.649,322.566 274.972,317.447L277.209,308.789C285.4,306.742 293.351,303.489 300.782,299.031L310.575,305.307C315.162,308.247 321.178,307.596 325.03,303.744L335.486,293.288C339.339,289.435 339.989,283.42 337.049,278.833L330.773,269.04C335.231,261.609 338.484,253.658 340.531,245.467L349.189,243.23C354.309,241.907 357.885,237.29 357.885,232.003Z" style="fill:rgb(116,200,104);fill-rule:nonzero;"/>
                        </g>
                    </g>
                </g>
            </g>
        </g>
        <g>
            <path d="M256,54.326C164.346,54.326 89.779,128.608 89.779,219.913C89.779,296.505 142.593,362.88 216.509,380.797L216.509,404.039L207.799,404.039C202.276,404.039 197.799,408.517 197.799,414.039L197.799,464.64C197.799,470.162 202.276,474.64 207.799,474.64L223.302,474.64L223.302,502C223.302,507.522 227.779,512 233.302,512L278.698,512C284.221,512 288.698,507.522 288.698,502L288.698,474.64L304.201,474.64C309.724,474.64 314.201,470.162 314.201,464.64L314.201,414.039C314.201,408.517 309.724,404.039 304.201,404.039L295.491,404.039L295.491,380.797C369.407,362.88 422.221,296.505 422.221,219.913C422.221,128.608 347.654,54.326 256,54.326ZM268.698,492L243.302,492L243.302,474.64L268.698,474.64L268.698,492ZM294.201,454.64L217.8,454.64L217.8,424.039L294.201,424.039L294.201,454.64ZM283.622,362.906C278.905,363.804 275.491,367.928 275.491,372.73L275.491,404.039L236.51,404.039L236.51,372.73C236.51,367.928 233.096,363.804 228.379,362.906C159.658,349.831 109.78,289.693 109.78,219.913C109.78,139.636 175.374,74.326 256.001,74.326C336.628,74.326 402.222,139.636 402.222,219.913C402.221,289.693 352.343,349.831 283.622,362.906Z" style="fill:rgb(55,80,90);fill-rule:nonzero;"/>
            <path d="M256,35.542C261.523,35.542 266,31.064 266,25.542L266,10C266,4.478 261.523,0 256,0C250.477,0 246,4.478 246,10L246,25.542C246,31.064 250.477,35.542 256,35.542Z" style="fill:rgb(55,80,90);fill-rule:nonzero;"/>
            <path d="M465.949,209.097L450.344,209.097C444.821,209.097 440.344,213.575 440.344,219.097C440.344,224.619 444.821,229.097 450.344,229.097L465.949,229.097C471.472,229.097 475.949,224.619 475.949,219.097C475.949,213.575 471.472,209.097 465.949,209.097Z" style="fill:rgb(55,80,90);fill-rule:nonzero;"/>
            <path d="M61.656,209.097L46.051,209.097C40.528,209.097 36.051,213.575 36.051,219.097C36.051,224.619 40.528,229.097 46.051,229.097L61.656,229.097C67.179,229.097 71.656,224.619 71.656,219.097C71.656,213.575 67.179,209.097 61.656,209.097Z" style="fill:rgb(55,80,90);fill-rule:nonzero;"/>
            <path d="M393.422,92.232C395.974,92.232 398.527,91.261 400.479,89.318L411.513,78.329C415.426,74.432 415.439,68.1 411.542,64.186C407.645,60.272 401.312,60.259 397.4,64.157L386.366,75.146C382.453,79.043 382.44,85.375 386.337,89.289C388.29,91.251 390.856,92.232 393.422,92.232Z" style="fill:rgb(55,80,90);fill-rule:nonzero;"/>
            <path d="M111.521,348.874L100.487,359.863C96.574,363.76 96.561,370.092 100.458,374.006C102.412,375.968 104.978,376.949 107.543,376.949C110.095,376.949 112.648,375.978 114.6,374.035L125.634,363.046C129.547,359.149 129.56,352.817 125.663,348.903C121.766,344.989 115.434,344.977 111.521,348.874Z" style="fill:rgb(55,80,90);fill-rule:nonzero;"/>
            <path d="M400.479,348.874C396.565,344.977 390.234,344.988 386.337,348.903C382.44,352.816 382.453,359.148 386.366,363.046L397.4,374.035C399.352,375.978 401.904,376.949 404.457,376.949C407.022,376.949 409.589,375.968 411.542,374.006C415.439,370.093 415.426,363.761 411.513,359.863L400.479,348.874Z" style="fill:rgb(55,80,90);fill-rule:nonzero;"/>
            <path d="M111.521,89.318C113.473,91.261 116.025,92.232 118.578,92.232C121.143,92.232 123.71,91.251 125.663,89.289C129.56,85.376 129.547,79.044 125.634,75.146L114.6,64.157C110.687,60.261 104.355,60.271 100.458,64.186C96.561,68.099 96.574,74.431 100.487,78.329L111.521,89.318Z" style="fill:rgb(55,80,90);fill-rule:nonzero;"/>
            <path d="M256,176.149C229.472,176.149 207.891,197.73 207.891,224.257C207.891,250.784 229.473,272.366 256,272.366C282.527,272.366 304.109,250.784 304.109,224.257C304.109,197.73 282.528,176.149 256,176.149ZM256,252.367C240.5,252.367 227.891,239.758 227.891,224.258C227.891,208.759 240.501,196.15 256,196.15C271.499,196.15 284.109,208.759 284.109,224.258C284.109,239.758 271.5,252.367 256,252.367Z" style="fill:rgb(55,80,90);fill-rule:nonzero;"/>
        </g>
    </g>
</svg>
