<?xml version="1.0" encoding="UTF-8" standalone="no"?>
<!DOCTYPE svg PUBLIC "-//W3C//DTD SVG 1.1//EN" "http://www.w3.org/Graphics/SVG/1.1/DTD/svg11.dtd">
<svg width="100%" height="100%" viewBox="0 0 512 512" version="1.1" xmlns="http://www.w3.org/2000/svg" xmlns:xlink="http://www.w3.org/1999/xlink" xml:space="preserve" xmlns:serif="http://www.serif.com/" style="fill-rule:evenodd;clip-rule:evenodd;stroke-linejoin:round;stroke-miterlimit:2;">
    <g>
        <g>
            <g>
                <g>
                    <g>
                        <g>
                            <g>
                                <g>
                                    <ellipse cx="256" cy="219.913" rx="107.739" ry="107.301" style="fill:rgb(116,200,104);"/>
                                </g>
                            </g>
                        </g>
                    </g>
                </g>
            </g>
        </g>
        <g>
            <path d="M256,54.326C164.346,54.326 89.779,128.608 89.779,219.912C89.779,296.504 142.593,362.879 216.508,380.796L216.508,404.038L207.798,404.038C202.276,404.038 197.798,408.515 197.798,414.038L197.798,464.639C197.798,470.162 202.276,474.639 207.798,474.639L223.302,474.639L223.302,502C223.302,507.523 227.78,512 233.302,512L278.697,512C284.219,512 288.697,507.523 288.697,502L288.697,474.64L304.201,474.64C309.723,474.64 314.201,470.163 314.201,464.64L314.201,414.039C314.201,408.516 309.723,404.039 304.201,404.039L295.491,404.039L295.491,380.797C369.406,362.88 422.22,296.505 422.22,219.913C422.221,128.608 347.654,54.326 256,54.326ZM268.697,492L243.302,492L243.302,474.64L268.697,474.64L268.697,492ZM294.201,454.64L217.799,454.64L217.799,424.039L294.201,424.039L294.201,454.64ZM283.622,362.907C278.904,363.804 275.491,367.928 275.491,372.731L275.491,404.039L236.509,404.039L236.509,372.73C236.509,367.928 233.096,363.804 228.378,362.906C159.657,349.83 109.779,289.693 109.779,219.912C109.779,139.635 175.374,74.326 256,74.326C336.626,74.326 402.221,139.636 402.221,219.912C402.221,289.693 352.343,349.831 283.622,362.907Z" style="fill:rgb(55,80,90);fill-rule:nonzero;"/>
            <path d="M256,35.542C261.522,35.542 266,31.065 266,25.542L266,10C266,4.477 261.522,0 256,0C250.478,0 246,4.477 246,10L246,25.542C246,31.064 250.478,35.542 256,35.542Z" style="fill:rgb(55,80,90);fill-rule:nonzero;"/>
            <path d="M465.948,209.096L450.344,209.096C444.822,209.096 440.344,213.573 440.344,219.096C440.344,224.619 444.822,229.096 450.344,229.096L465.948,229.096C471.47,229.096 475.948,224.619 475.948,219.096C475.948,213.573 471.471,209.096 465.948,209.096Z" style="fill:rgb(55,80,90);fill-rule:nonzero;"/>
            <path d="M61.656,209.096L46.052,209.096C40.53,209.096 36.052,213.573 36.052,219.096C36.052,224.619 40.53,229.096 46.052,229.096L61.656,229.096C67.178,229.096 71.656,224.619 71.656,219.096C71.656,213.573 67.179,209.096 61.656,209.096Z" style="fill:rgb(55,80,90);fill-rule:nonzero;"/>
            <path d="M393.422,92.232C395.975,92.232 398.527,91.261 400.479,89.317L411.513,78.327C415.426,74.43 415.439,68.098 411.541,64.185C407.645,60.271 401.312,60.259 397.399,64.156L386.365,75.146C382.452,79.043 382.439,85.375 386.337,89.288C388.29,91.251 390.855,92.232 393.422,92.232Z" style="fill:rgb(55,80,90);fill-rule:nonzero;"/>
            <path d="M111.521,348.875L100.487,359.865C96.574,363.762 96.561,370.094 100.459,374.007C102.412,375.969 104.978,376.95 107.544,376.95C110.097,376.95 112.649,375.979 114.601,374.035L125.635,363.045C129.548,359.148 129.561,352.816 125.663,348.903C121.767,344.99 115.434,344.977 111.521,348.875Z" style="fill:rgb(55,80,90);fill-rule:nonzero;"/>
            <path d="M400.479,348.875C396.567,344.979 390.234,344.989 386.337,348.904C382.44,352.817 382.452,359.149 386.365,363.046L397.399,374.036C399.35,375.979 401.903,376.951 404.456,376.951C407.021,376.951 409.588,375.97 411.541,374.008C415.438,370.095 415.426,363.763 411.513,359.866L400.479,348.875Z" style="fill:rgb(55,80,90);fill-rule:nonzero;"/>
            <path d="M111.521,89.318C113.472,91.261 116.025,92.233 118.578,92.233C121.143,92.233 123.71,91.252 125.663,89.29C129.56,85.377 129.548,79.045 125.635,75.148L114.601,64.158C110.688,60.261 104.355,60.272 100.459,64.187C96.562,68.1 96.574,74.432 100.487,78.329L111.521,89.318Z" style="fill:rgb(55,80,90);fill-rule:nonzero;"/>
        </g>
    </g>
</svg>
