<?xml version="1.0" encoding="UTF-8" standalone="no"?>
<!DOCTYPE svg PUBLIC "-//W3C//DTD SVG 1.1//EN" "http://www.w3.org/Graphics/SVG/1.1/DTD/svg11.dtd">
<svg width="100%" height="100%" viewBox="0 0 512 512" version="1.1" xmlns="http://www.w3.org/2000/svg" xmlns:xlink="http://www.w3.org/1999/xlink" xml:space="preserve" xmlns:serif="http://www.serif.com/" style="fill-rule:evenodd;clip-rule:evenodd;stroke-linejoin:round;stroke-miterlimit:2;">
    <g>
        <g>
            <circle cx="256" cy="206.409" r="118.788" style="fill:rgb(116,200,104);"/>
        </g>
        <g>
            <path d="M384.684,77.48C350.2,43.061 304.407,24.18 255.648,24.25C206.91,24.343 161.084,43.596 126.61,78.463C92.124,113.344 73.386,159.407 73.848,208.169C74.59,286.518 125.123,355.438 199.595,379.667C207.097,382.107 212.137,389.075 212.137,397.006L212.137,405.176L199.606,405.176C194.083,405.176 189.606,409.654 189.606,415.176C189.606,420.698 194.083,425.176 199.606,425.176L218.744,425.176L218.744,448.031C218.744,460.856 229.178,471.29 242.003,471.29L246,471.29L246,477.752C246,483.274 250.477,487.752 256,487.752C261.523,487.752 266,483.274 266,477.752L266,471.29L269.998,471.29C282.823,471.29 293.257,460.856 293.257,448.031L293.257,425.176L312.395,425.176C317.918,425.176 322.395,420.698 322.395,415.176C322.395,409.654 317.918,405.176 312.395,405.176L299.864,405.176L299.864,397.012C299.864,389.07 304.836,382.121 312.237,379.722C348.556,367.945 379.803,345.41 402.601,314.553C425.865,283.067 438.162,245.671 438.162,206.41C438.161,157.688 419.169,111.9 384.684,77.48ZM273.256,448.03C273.256,449.827 271.794,451.289 269.997,451.289L242.002,451.289C240.205,451.289 238.743,449.827 238.743,448.03L238.743,425.175L273.256,425.175L273.256,448.03ZM306.067,360.695C290.394,365.778 279.863,380.372 279.863,397.01L279.863,405.174L232.136,405.174L232.136,397.004C232.136,380.386 221.545,365.775 205.781,360.646C139.49,339.079 94.507,277.726 93.847,207.979C93.436,164.587 110.122,123.585 140.832,92.524C171.529,61.476 212.319,44.332 255.686,44.25C299.085,44.205 339.857,60.996 370.555,91.636C401.254,122.277 418.16,163.037 418.16,206.41C418.161,276.952 373.114,338.955 306.067,360.695Z" style="fill:rgb(55,80,90);fill-rule:nonzero;"/>
            <path d="M83.646,53.54C85.599,55.492 88.158,56.469 90.717,56.469C93.276,56.469 95.836,55.492 97.788,53.54C101.693,49.635 101.693,43.303 97.788,39.397L89.122,30.731C85.217,26.827 78.885,26.827 74.979,30.731C71.074,34.636 71.074,40.968 74.979,44.874L83.646,53.54Z" style="fill:rgb(55,80,90);fill-rule:nonzero;"/>
            <path d="M428.353,369.963C424.448,366.057 418.115,366.058 414.211,369.964C410.306,373.869 410.306,380.2 414.211,384.106L422.877,392.771C424.83,394.724 427.389,395.7 429.948,395.7C432.507,395.7 435.067,394.723 437.019,392.77C440.924,388.865 440.924,382.534 437.019,378.628L428.353,369.963Z" style="fill:rgb(55,80,90);fill-rule:nonzero;"/>
            <path d="M421.282,56.469C423.841,56.469 426.401,55.492 428.353,53.54L437.019,44.874C440.924,40.969 440.924,34.637 437.019,30.731C433.114,26.827 426.782,26.827 422.876,30.731L414.21,39.397C410.305,43.302 410.305,49.634 414.21,53.54C416.164,55.492 418.723,56.469 421.282,56.469Z" style="fill:rgb(55,80,90);fill-rule:nonzero;"/>
            <path d="M83.647,369.963L74.981,378.628C71.076,382.533 71.075,388.864 74.981,392.77C76.934,394.723 79.493,395.7 82.052,395.7C84.611,395.7 87.17,394.723 89.123,392.771L97.789,384.106C101.694,380.201 101.695,373.87 97.789,369.964C93.885,366.059 87.553,366.059 83.647,369.963Z" style="fill:rgb(55,80,90);fill-rule:nonzero;"/>
            <path d="M502,201.751L489.745,201.751C484.222,201.751 479.745,206.229 479.745,211.751C479.745,217.273 484.222,221.751 489.745,221.751L502,221.751C507.523,221.751 512,217.273 512,211.751C512,206.229 507.523,201.751 502,201.751Z" style="fill:rgb(55,80,90);fill-rule:nonzero;"/>
            <path d="M22.255,201.751L10,201.751C4.477,201.751 -0,206.229 -0,211.751C-0,217.273 4.477,221.751 10,221.751L22.255,221.751C27.778,221.751 32.255,217.273 32.255,211.751C32.255,206.229 27.778,201.751 22.255,201.751Z" style="fill:rgb(55,80,90);fill-rule:nonzero;"/>
            <path d="M274.493,224.68L256,243.174L237.507,224.68C233.601,220.777 227.27,220.776 223.365,224.68C219.46,228.585 219.459,234.917 223.365,238.823L248.929,264.388C250.804,266.263 253.348,267.317 256,267.317C258.652,267.317 261.196,266.263 263.071,264.388L288.635,238.823C292.54,234.918 292.54,228.586 288.635,224.68C284.73,220.775 278.398,220.775 274.493,224.68Z" style="fill:rgb(55,80,90);fill-rule:nonzero;"/>
        </g>
    </g>
</svg>
