<?xml version="1.0" encoding="UTF-8" standalone="no"?>
<!DOCTYPE svg PUBLIC "-//W3C//DTD SVG 1.1//EN" "http://www.w3.org/Graphics/SVG/1.1/DTD/svg11.dtd">
<svg width="100%" height="100%" viewBox="0 0 512 512" version="1.1" xmlns="http://www.w3.org/2000/svg" xmlns:xlink="http://www.w3.org/1999/xlink" xml:space="preserve" xmlns:serif="http://www.serif.com/" style="fill-rule:evenodd;clip-rule:evenodd;stroke-linejoin:round;stroke-miterlimit:2;">
    <g>
        <g>
            <path d="M275.261,407L273.982,406.998L256,427.155L237.973,406.947L237.058,406.946C213.203,410.962 196,422.356 196,435.784C196,452.564 222.863,466.167 256,466.167C289.137,466.167 316,452.564 316,435.784C316,422.416 298.95,411.064 275.261,407Z" style="fill:rgb(116,200,104);fill-rule:nonzero;"/>
            <g>
                <g>
                    <path d="M160.692,304.082L198.982,304.082L198.982,311.442C198.982,331.7 215.437,348.123 235.736,348.123L307.605,348.123C317.125,348.123 325.213,340.613 325.539,330.98C325.851,321.733 319.182,313.998 310.455,312.762L317.829,312.435L317.829,312.418C326.359,311.21 332.923,303.793 332.923,294.823C332.923,285.853 326.359,278.436 317.829,277.228L317.829,276.929L313.289,276.929L317.829,276.929L317.829,276.884C326.359,275.676 332.923,268.259 332.923,259.289C332.923,250.319 326.359,242.902 317.829,241.695L317.829,241.351L313.289,241.351L317.829,241.351C326.359,240.143 332.923,232.726 332.923,223.756C332.923,213.944 325.067,205.989 315.377,205.989L278.7,205.989L278.7,159.14C278.7,147.854 269.533,138.706 258.225,138.706C246.917,138.706 237.75,147.855 237.75,159.14L237.75,193.968C237.75,200.607 232.358,205.988 225.706,205.988L216.887,205.988C207,205.988 198.984,213.993 198.984,223.861L198.984,249.345L160.694,249.345L160.694,304.082L160.692,304.082Z" style="fill:rgb(116,200,104);fill-rule:nonzero;"/>
                </g>
            </g>
        </g>
        <g>
            <path d="M465.604,45.833L46.396,45.833C20.813,45.833 -0,66.645 -0,92.228L-0,349.955C-0,375.538 20.813,396.351 46.396,396.351L204.129,396.351C211.112,396.351 217.783,399.339 222.432,404.55L248.538,433.813C250.435,435.939 253.15,437.156 256,437.156C258.85,437.156 261.564,435.94 263.462,433.813L289.568,404.549C294.216,399.339 300.887,396.35 307.871,396.35L465.604,396.35C491.187,396.35 512,375.537 512,349.954L512,92.228C512,66.645 491.188,45.833 465.604,45.833ZM492,349.954C492,364.509 480.159,376.35 465.604,376.35L307.871,376.35C295.193,376.35 283.083,381.775 274.644,391.235L256,412.134L237.355,391.236C228.917,381.776 216.806,376.351 204.128,376.351L46.396,376.351C31.841,376.35 20,364.509 20,349.954L20,92.228C20,77.674 31.841,65.833 46.396,65.833L465.605,65.833C480.16,65.833 492.001,77.674 492.001,92.228L492.001,349.954L492,349.954Z" style="fill:rgb(55,80,90);fill-rule:nonzero;"/>
            <path d="M256,83.396C250.478,83.396 246,87.873 246,93.396L246,104.076C246,109.599 250.478,114.076 256,114.076C261.522,114.076 266,109.599 266,104.076L266,93.396C266,87.873 261.522,83.396 256,83.396Z" style="fill:rgb(55,80,90);fill-rule:nonzero;"/>
            <path d="M214.388,109.067C210.483,105.162 204.153,105.162 200.245,109.067C196.34,112.972 196.34,119.304 200.245,123.209L207.797,130.761C209.75,132.714 212.309,133.69 214.868,133.69C217.427,133.69 219.986,132.713 221.939,130.761C225.844,126.856 225.844,120.524 221.939,116.619L214.388,109.067Z" style="fill:rgb(55,80,90);fill-rule:nonzero;"/>
            <path d="M297.612,109.067L290.06,116.619C286.155,120.524 286.155,126.856 290.06,130.761C292.013,132.714 294.572,133.69 297.131,133.69C299.69,133.69 302.25,132.713 304.202,130.761L311.754,123.209C315.659,119.304 315.659,112.972 311.754,109.067C307.849,105.161 301.517,105.162 297.612,109.067Z" style="fill:rgb(55,80,90);fill-rule:nonzero;"/>
        </g>
    </g>
</svg>
