<?xml version="1.0" encoding="UTF-8" standalone="no"?>
<!DOCTYPE svg PUBLIC "-//W3C//DTD SVG 1.1//EN" "http://www.w3.org/Graphics/SVG/1.1/DTD/svg11.dtd">
<svg width="100%" height="100%" viewBox="0 0 512 512" version="1.1" xmlns="http://www.w3.org/2000/svg" xmlns:xlink="http://www.w3.org/1999/xlink" xml:space="preserve" xmlns:serif="http://www.serif.com/" style="fill-rule:evenodd;clip-rule:evenodd;stroke-linejoin:round;stroke-miterlimit:2;">
    <g>
        <path d="M311.994,349.987C394.605,349.987 461.984,282.608 461.984,199.997C454.312,1.312 169.645,1.367 162.003,199.999C162.003,282.608 229.382,349.987 311.994,349.987Z" style="fill:rgb(116,200,104);"/>
        <g>
            <path d="M311.994,0.009C153.691,-1.512 56.805,181.537 145.745,311.046C145.66,311.064 12.811,437.67 12.719,437.721C-14.673,464.994 5.263,512.259 43.495,511.999C54.64,511.999 65.785,507.757 74.27,499.273C74.558,499.213 200.684,366.351 200.945,366.247C330.499,455.2 513.507,358.262 511.979,199.995C511.981,89.723 422.268,0.009 311.994,0.009ZM60.051,485.208C37.187,506.223 5.776,474.784 26.782,451.941L117.675,365.39L146.601,394.316L60.051,485.208ZM160.397,379.828L132.163,351.594L157.784,327.197C165.912,337.032 174.959,346.079 184.794,354.207L160.397,379.828ZM311.994,379.985C212.748,379.985 132.005,299.242 132.005,199.996C141.054,-38.456 482.97,-38.391 491.982,199.998C491.982,299.242 411.239,379.985 311.994,379.985Z" style="fill:rgb(55,80,90);fill-rule:nonzero;"/>
        </g>
    </g>
</svg>
