<?xml version="1.0" encoding="UTF-8" standalone="no"?>
<!DOCTYPE svg PUBLIC "-//W3C//DTD SVG 1.1//EN" "http://www.w3.org/Graphics/SVG/1.1/DTD/svg11.dtd">
<svg width="100%" height="100%" viewBox="0 0 512 512" version="1.1" xmlns="http://www.w3.org/2000/svg" xmlns:xlink="http://www.w3.org/1999/xlink" xml:space="preserve" xmlns:serif="http://www.serif.com/" style="fill-rule:evenodd;clip-rule:evenodd;stroke-linejoin:round;stroke-miterlimit:2;">
    <g>
        <g>
            <path d="M413.545,155.257L86.769,155.257C66.949,155.257 50.882,171.324 50.882,191.143L50.882,476.113C50.882,495.933 66.949,512 86.769,512L413.544,512C433.364,512 449.43,495.933 449.43,476.113L449.43,191.143C449.431,171.324 433.364,155.257 413.545,155.257ZM333.028,366.504C333.028,412.244 295.948,449.324 250.208,449.324L250.106,449.324C204.366,449.324 167.286,412.244 167.286,366.504L167.286,271.867C167.286,226.127 204.366,189.047 250.106,189.047L250.208,189.047C295.948,189.047 333.028,226.127 333.028,271.867L333.028,366.504Z" style="fill:rgb(116,200,104);fill-rule:nonzero;"/>
        </g>
        <g>
            <path d="M240.156,249.628L240.156,265.223C240.156,270.746 244.634,275.223 250.156,275.223C255.678,275.223 260.156,270.746 260.156,265.223L260.156,249.628C260.156,244.105 255.678,239.628 250.156,239.628C244.634,239.628 240.156,244.105 240.156,249.628Z" style="fill:rgb(55,80,90);fill-rule:nonzero;"/>
            <path d="M430.399,59.382L95.288,59.382C84.41,59.382 75.56,50.549 75.56,39.691C75.561,28.833 84.41,20 95.288,20L402.473,20C407.995,20 412.473,15.523 412.473,10C412.473,4.477 407.995,0 402.473,0L95.288,0C73.382,0 55.561,17.805 55.561,39.691C55.561,61.577 73.382,79.382 95.289,79.382L430.399,79.382C436.309,79.382 441.118,84.179 441.118,90.076C441.118,95.973 436.309,100.77 430.399,100.77L250.156,100.77C244.634,100.77 240.156,105.247 240.156,110.77L240.156,179.576C193.635,184.556 157.285,224.046 157.285,271.867L157.285,366.505C157.285,417.686 198.924,459.325 250.105,459.325L250.207,459.325C301.389,459.325 343.027,417.686 343.027,366.505L343.027,271.867C343.027,224.046 306.677,184.556 260.156,179.576L260.156,120.77L430.398,120.77C447.336,120.77 461.117,107.001 461.117,90.076C461.117,73.151 447.337,59.382 430.399,59.382ZM250.207,439.325L250.105,439.325C209.952,439.325 177.285,406.658 177.285,366.505L177.285,319.011L323.027,319.011L323.027,366.505C323.028,406.658 290.361,439.325 250.207,439.325ZM323.028,271.867L323.028,299.011L177.285,299.011L177.285,271.867C177.285,231.714 209.952,199.047 250.105,199.047L250.207,199.047C290.361,199.046 323.028,231.713 323.028,271.867Z" style="fill:rgb(55,80,90);fill-rule:nonzero;"/>
        </g>
    </g>
</svg>
