<?xml version="1.0" encoding="UTF-8" standalone="no"?>
<!DOCTYPE svg PUBLIC "-//W3C//DTD SVG 1.1//EN" "http://www.w3.org/Graphics/SVG/1.1/DTD/svg11.dtd">
<svg width="100%" height="100%" viewBox="0 0 512 512" version="1.1" xmlns="http://www.w3.org/2000/svg" xmlns:xlink="http://www.w3.org/1999/xlink" xml:space="preserve" xmlns:serif="http://www.serif.com/" style="fill-rule:evenodd;clip-rule:evenodd;stroke-linejoin:round;stroke-miterlimit:2;">
    <g>
        <g>
            <path d="M326.125,92.166L266.018,92.166C265.525,78.891 246.466,78.894 245.978,92.166L185.875,92.166C147.208,92.166 115.75,123.624 115.75,162.291L115.75,372.666C122.769,558.409 389.207,558.481 396.25,372.664L396.25,162.291C396.25,123.624 364.792,92.166 326.125,92.166ZM185.875,112.201L245.982,112.201L245.982,163.153C245.982,168.686 250.468,173.171 256,173.171C261.532,173.171 266.018,168.686 266.018,163.153L266.018,112.201L326.125,112.201C353.744,112.201 376.215,134.671 376.215,162.291L376.215,237.425L281.045,237.425C275.513,237.425 271.027,241.91 271.027,247.443C271.027,252.976 275.513,257.461 281.045,257.461L376.215,257.461L376.215,372.666C376.215,386.789 373.765,400.558 369.068,413.493L312.371,413.493L194.714,295.837C192.834,293.959 190.287,292.903 187.63,292.903L135.785,292.903L135.785,257.462L230.955,257.462C236.487,257.462 240.973,252.977 240.973,247.444C240.973,241.911 236.487,237.426 230.955,237.426L135.785,237.426L135.785,162.292C135.785,134.671 158.256,112.201 185.875,112.201ZM340.893,457.56C295.949,504.341 216.049,504.344 171.107,457.559C127.893,414.843 136.371,367.481 135.785,312.94L183.48,312.94L301.136,430.596C303.015,432.474 305.562,433.53 308.219,433.53L359.587,433.53C354.462,442.176 348.205,450.248 340.893,457.56Z" style="fill:rgb(55,80,90);fill-rule:nonzero;"/>
            <path d="M204.997,41.161C218.62,27.538 236.734,20.036 256,20.036C275.266,20.036 293.38,27.538 307.003,41.161C308.96,43.118 311.523,44.096 314.087,44.096C322.782,44.25 327.521,33.157 321.17,26.994C303.764,9.587 280.619,0 256,0C231.381,0 208.236,9.587 190.829,26.995C186.917,30.907 186.917,37.25 190.829,41.162C194.743,45.074 201.084,45.074 204.997,41.161Z" style="fill:rgb(55,80,90);fill-rule:nonzero;"/>
            <path d="M219.873,56.038C210.825,65.734 224.332,79.26 234.041,70.205C239.906,64.34 247.705,61.109 256.001,61.109C264.297,61.109 272.095,64.34 277.96,70.205C279.916,72.162 282.48,73.14 285.044,73.14C293.75,73.292 298.47,62.198 292.127,56.038C273.112,36.218 238.888,36.219 219.873,56.038Z" style="fill:rgb(55,80,90);fill-rule:nonzero;"/>
        </g>
        <path d="M256,156.28C272.53,156.28 286.054,169.805 286.054,186.334L286.054,248.445C284.491,288.231 227.517,288.254 225.946,248.445L225.946,186.334C225.946,169.804 239.47,156.28 256,156.28Z" style="fill:rgb(116,200,104);"/>
    </g>
</svg>
