<?xml version="1.0" encoding="UTF-8" standalone="no"?>
<!DOCTYPE svg PUBLIC "-//W3C//DTD SVG 1.1//EN" "http://www.w3.org/Graphics/SVG/1.1/DTD/svg11.dtd">
<svg width="100%" height="100%" viewBox="0 0 512 512" version="1.1" xmlns="http://www.w3.org/2000/svg" xmlns:xlink="http://www.w3.org/1999/xlink" xml:space="preserve" xmlns:serif="http://www.serif.com/" style="fill-rule:evenodd;clip-rule:evenodd;stroke-linejoin:round;stroke-miterlimit:2;">
    <g>
        <g>
            <path d="M356.7,61.347L265.308,61.347C259.785,61.347 255.308,65.824 255.308,71.347C255.308,76.87 259.785,81.347 265.308,81.347L356.7,81.347C362.223,81.347 366.7,76.87 366.7,71.347C366.7,65.824 362.223,61.347 356.7,61.347Z" style="fill:rgb(55,80,90);fill-rule:nonzero;"/>
            <path d="M274.19,407.98C272.556,404.057 268.487,401.525 264.241,401.832C260.086,402.133 256.494,405.065 255.345,409.064C254.196,413.062 255.728,417.521 259.128,419.935C262.597,422.397 267.304,422.389 270.771,419.935C274.527,417.278 275.925,412.214 274.19,407.98Z" style="fill:rgb(55,80,90);fill-rule:nonzero;"/>
            <path d="M320.24,407.98C318.605,404.056 314.538,401.525 310.291,401.832C306.135,402.133 302.545,405.065 301.395,409.064C300.245,413.061 301.778,417.521 305.178,419.935C308.55,422.329 313.103,422.399 316.55,420.12C320.493,417.512 322.025,412.335 320.24,407.98Z" style="fill:rgb(55,80,90);fill-rule:nonzero;"/>
            <path d="M366.29,407.98C364.655,404.056 360.587,401.525 356.341,401.832C352.127,402.137 348.503,405.148 347.4,409.22C346.333,413.162 347.865,417.505 351.177,419.898C354.544,422.331 359.141,422.412 362.6,420.119C366.542,417.506 368.078,412.342 366.29,407.98Z" style="fill:rgb(55,80,90);fill-rule:nonzero;"/>
            <path d="M449.942,0L172.08,0C157.409,0 145.473,11.934 145.473,26.604L145.473,122.377C145.473,137.046 157.409,148.981 172.08,148.981L351.616,148.981L390.774,176.417C392.475,177.609 394.483,178.227 396.513,178.227C397.503,178.227 398.498,178.08 399.466,177.781C402.419,176.868 404.783,174.642 405.872,171.75L414.443,148.981L449.943,148.981C464.607,148.981 476.536,137.053 476.536,122.392L476.536,26.589C476.535,11.928 464.605,0 449.942,0ZM456.535,122.392C456.535,126.025 453.577,128.981 449.942,128.981L407.522,128.981C403.358,128.981 399.63,131.561 398.163,135.458L391.695,152.641L360.51,130.791C358.828,129.613 356.825,128.981 354.772,128.981L172.08,128.981C168.436,128.981 165.473,126.019 165.473,122.377L165.473,26.604C165.473,22.963 168.437,20 172.08,20L449.942,20C453.578,20 456.535,22.956 456.535,26.589L456.535,122.392Z" style="fill:rgb(55,80,90);fill-rule:nonzero;"/>
            <path d="M449.942,333.773L172.08,333.773C157.409,333.773 145.473,345.707 145.473,360.377L145.473,456.15C145.473,470.819 157.409,482.754 172.08,482.754L351.616,482.754L390.774,510.19C392.475,511.382 394.483,512 396.513,512C397.503,512 398.498,511.853 399.466,511.554C402.419,510.641 404.783,508.415 405.872,505.523L414.443,482.754L449.943,482.754C464.607,482.754 476.536,470.826 476.536,456.165L476.536,360.362C476.535,345.701 464.605,333.773 449.942,333.773ZM456.535,456.165C456.535,459.798 453.577,462.754 449.942,462.754L407.522,462.754C403.358,462.754 399.63,465.334 398.163,469.231L391.695,486.414L360.51,464.564C358.828,463.386 356.825,462.754 354.772,462.754L172.08,462.754C168.436,462.754 165.473,459.792 165.473,456.15L165.473,360.377C165.473,356.736 168.437,353.773 172.08,353.773L449.942,353.773C453.578,353.773 456.535,356.729 456.535,360.362L456.535,456.165Z" style="fill:rgb(55,80,90);fill-rule:nonzero;"/>
        </g>
        <g>
            <path d="M52.058,176.887L329.92,176.887C339.092,176.887 346.528,184.321 346.528,193.491L346.528,289.264C346.528,298.434 339.092,305.868 329.92,305.868L147.229,305.868L105.488,335.114L94.479,305.868L52.058,305.868C42.894,305.868 35.465,298.441 35.465,289.279L35.465,193.477C35.465,184.314 42.894,176.887 52.058,176.887Z" style="fill:rgb(116,200,104);fill-rule:nonzero;"/>
        </g>
    </g>
</svg>
