<?xml version="1.0" encoding="UTF-8" standalone="no"?>
<!DOCTYPE svg PUBLIC "-//W3C//DTD SVG 1.1//EN" "http://www.w3.org/Graphics/SVG/1.1/DTD/svg11.dtd">
<svg width="100%" height="100%" viewBox="0 0 512 512" version="1.1" xmlns="http://www.w3.org/2000/svg" xmlns:xlink="http://www.w3.org/1999/xlink" xml:space="preserve" xmlns:serif="http://www.serif.com/" style="fill-rule:evenodd;clip-rule:evenodd;stroke-linejoin:round;stroke-miterlimit:2;">
    <g>
        <g>
            <rect x="62.683" y="275.274" width="206.629" height="149.361" style="fill:rgb(116,200,104);fill-rule:nonzero;"/>
        </g>
        <g>
            <path d="M502,254.029C496.477,254.029 492,258.507 492,264.029L492,270.276L439.002,292.016L439.002,250.675C439.002,231.55 423.442,215.99 404.317,215.99L374.708,215.99C400.587,197.063 417.426,166.479 417.426,132.036C417.426,74.715 370.789,28.081 313.464,28.081C272.042,28.081 236.2,52.43 219.502,87.566C202.804,52.43 166.962,28.081 125.54,28.081C68.215,28.081 21.578,74.715 21.578,132.036C21.578,166.479 38.417,197.063 64.296,215.99L34.686,215.99C15.56,215.991 0,231.551 0,250.676L0,449.234C0,468.359 15.56,483.919 34.685,483.919L404.317,483.919C423.442,483.919 439.002,468.359 439.002,449.234L439.002,407.893L492,429.632L492,435.879C492,441.401 496.477,445.879 502,445.879C507.523,445.879 512,441.401 512,435.879L512,264.029C512,258.507 507.523,254.029 502,254.029ZM313.463,48.082C359.76,48.082 397.425,85.744 397.425,132.037C397.425,178.329 359.759,215.991 313.463,215.991C267.167,215.991 229.501,178.329 229.501,132.037C229.501,85.744 267.166,48.082 313.463,48.082ZM252.219,215.991L186.784,215.991C200.715,205.802 212.027,192.235 219.502,176.507C226.976,192.236 238.288,205.802 252.219,215.991ZM41.577,132.037C41.577,85.744 79.242,48.082 125.539,48.082C171.836,48.082 209.501,85.744 209.501,132.037C209.501,178.329 171.835,215.991 125.539,215.991C79.243,215.991 41.577,178.329 41.577,132.037ZM419.002,449.233C419.002,457.33 412.414,463.918 404.317,463.918L34.685,463.918C26.588,463.918 20,457.33 20,449.233L20,250.676C20,242.579 26.587,235.991 34.685,235.991L404.317,235.991C412.414,235.991 419.002,242.579 419.002,250.676L419.002,449.233ZM439.002,386.274L439.002,313.634L492,291.895L492,408.015L439.002,386.274Z" style="fill:rgb(55,80,90);fill-rule:nonzero;"/>
            <path d="M380.099,280.364L331.823,280.364C326.3,280.364 321.823,284.842 321.823,290.364C321.823,295.886 326.3,300.364 331.823,300.364L380.099,300.364C385.622,300.364 390.099,295.886 390.099,290.364C390.099,284.842 385.622,280.364 380.099,280.364Z" style="fill:rgb(55,80,90);fill-rule:nonzero;"/>
            <path d="M380.099,321.649L331.823,321.649C326.3,321.649 321.823,326.127 321.823,331.649C321.823,337.171 326.3,341.649 331.823,341.649L380.099,341.649C385.622,341.649 390.099,337.171 390.099,331.649C390.099,326.127 385.622,321.649 380.099,321.649Z" style="fill:rgb(55,80,90);fill-rule:nonzero;"/>
            <path d="M380.099,361.66L331.823,361.66C326.3,361.66 321.823,366.138 321.823,371.66L321.823,415.494C321.823,421.016 326.3,425.494 331.823,425.494L380.099,425.494C385.622,425.494 390.099,421.016 390.099,415.494L390.099,371.66C390.099,366.138 385.622,361.66 380.099,361.66ZM370.099,405.494L341.823,405.494L341.823,381.66L370.099,381.66L370.099,405.494Z" style="fill:rgb(55,80,90);fill-rule:nonzero;"/>
        </g>
    </g>
</svg>
