<svg width="24" height="24" viewBox="0 0 24 24" fill="none" xmlns="http://www.w3.org/2000/svg">
<path d="M4.7056 0.00610352C2.12039 0.00610352 0.00454712 2.1219 0.00454712 4.70715V19.2953C0.00454712 21.8805 2.12034 23.9956 4.7056 23.9956H19.2938C21.879 23.9956 23.9941 21.8806 23.9941 19.2953V4.70715C23.9941 2.12194 21.879 0.00610352 19.2938 0.00610352H4.7056ZM5.88798 3.96486C7.12753 3.96486 7.89104 4.7786 7.91461 5.84826C7.91461 6.8943 7.12748 7.73091 5.864 7.73091H5.84075C4.62479 7.73091 3.83886 6.89434 3.83886 5.84826C3.83886 4.77862 4.64857 3.96486 5.88796 3.96486H5.88798ZM16.5699 8.96429C18.9538 8.96429 20.7409 10.5224 20.7409 13.8708V20.1215H17.118V14.2898C17.118 12.8244 16.5937 11.8246 15.2826 11.8246C14.2817 11.8246 13.6851 12.4985 13.4231 13.1495C13.3275 13.3824 13.3039 13.7076 13.3039 14.0334V20.1215H9.68106C9.68106 20.1215 9.7286 10.2428 9.68106 9.21994H13.3047V10.7637C13.7861 10.0209 14.6473 8.96427 16.5699 8.96427V8.96429ZM4.05256 9.22073H7.67543V20.1216H4.05256V9.22073Z" fill="#37505a"/>
</svg>
