<?xml version="1.0" encoding="UTF-8" standalone="no"?>
<!DOCTYPE svg PUBLIC "-//W3C//DTD SVG 1.1//EN" "http://www.w3.org/Graphics/SVG/1.1/DTD/svg11.dtd">
<svg width="100%" height="100%" viewBox="0 0 512 512" version="1.1" xmlns="http://www.w3.org/2000/svg" xmlns:xlink="http://www.w3.org/1999/xlink" xml:space="preserve" xmlns:serif="http://www.serif.com/" style="fill-rule:evenodd;clip-rule:evenodd;stroke-linejoin:round;stroke-miterlimit:2;">
    <g>
        <g>
            <path d="M296.96,104.231C296.96,92.221 306.498,82.079 318.559,81.931C319.764,81.916 320.946,81.999 322.1,82.171L322.1,15.43C322.1,6.908 315.182,-0 306.648,-0L45.561,-0C37.028,-0 30.11,6.908 30.11,15.43L30.11,200.112C30.11,208.634 37.028,215.542 45.562,215.542L296.96,215.542L296.96,104.231Z" style="fill:rgb(116,200,104);fill-rule:nonzero;"/>
        </g>
        <g>
            <path d="M137.895,53.733C137.861,53.641 137.825,53.549 137.787,53.458C135.915,48.907 131.529,45.969 126.61,45.969L126.596,45.969C121.671,45.974 117.285,48.924 115.422,53.483C115.392,53.558 115.361,53.633 115.333,53.709L80.781,144.488C78.816,149.65 81.408,155.426 86.569,157.391C91.729,159.356 97.508,156.765 99.472,151.602L105.625,135.436L147.333,135.436L153.419,151.574C154.93,155.579 158.735,158.048 162.777,158.048C163.949,158.048 165.142,157.84 166.304,157.402C171.471,155.453 174.08,149.684 172.131,144.517L137.895,53.733ZM113.239,115.437L126.576,80.396L139.792,115.437L113.239,115.437Z" style="fill:rgb(55,80,90);fill-rule:nonzero;"/>
            <path d="M272.082,102.007C272.082,69.303 253.571,47.331 226.021,47.331L200.731,47.331C198.076,47.331 195.529,48.387 193.653,50.267C191.777,52.147 190.726,54.696 190.731,57.351L190.912,146.704C190.918,149.359 191.978,151.904 193.861,153.776C195.735,155.639 198.27,156.684 200.912,156.684L200.95,156.684C201.714,156.681 219.739,156.611 226.936,156.486C253.096,156.028 272.082,133.117 272.082,102.007ZM210.891,136.634L210.751,67.331L226.021,67.331C245.236,67.331 252.082,85.244 252.082,102.007C252.082,118.399 244.103,136.182 226.587,136.488C223.001,136.551 216.472,136.6 210.891,136.634Z" style="fill:rgb(55,80,90);fill-rule:nonzero;"/>
            <path d="M481.632,207.039C479.613,191.381 465.999,179.315 450.016,179.315C444.117,179.315 438.539,180.959 433.75,183.82C428.187,174.497 417.979,168.237 406.333,168.237C397.878,168.237 390.181,171.537 384.47,176.912C378.22,171.022 370.025,167.942 361.433,168.257L361.432,168.257C357.632,168.392 354.015,169.186 350.683,170.531L350.636,101.901C350.636,101.63 350.624,101.359 350.603,101.088C349.251,84.664 335.334,71.929 318.832,71.929C318.701,71.929 318.568,71.929 318.436,71.931C301.081,72.144 286.96,86.633 286.96,104.23L286.96,230.425C286.96,236.229 282.198,240.951 276.345,240.951L255.892,240.951C236.906,240.951 221.459,256.35 221.459,275.278C221.459,294.206 236.905,309.605 255.892,309.605L280.33,309.605C283.985,309.605 286.96,312.562 286.96,316.196C286.96,342.007 308.03,363.006 333.93,363.006L346.944,363.006L346.944,395.278C337.122,396.859 329.597,405.381 329.597,415.624L329.597,502C329.597,507.523 334.075,512 339.597,512L438.889,512C444.411,512 448.889,507.523 448.889,502L448.889,415.625C448.889,405.382 441.364,396.86 431.543,395.279L431.543,362.182C460.076,357.421 481.891,332.64 481.891,302.877L481.891,209.294C481.89,208.518 481.801,207.763 481.632,207.039ZM428.888,492L349.596,492L349.596,463.283L374.102,463.283C379.624,463.283 384.102,458.806 384.102,453.283C384.102,447.76 379.624,443.283 374.102,443.283L349.596,443.283L349.596,415.625C349.596,415.289 349.886,415.016 350.242,415.016L428.242,415.016C428.597,415.016 428.888,415.289 428.888,415.625L428.888,492ZM461.89,302.877C461.89,325.005 443.79,343.007 421.542,343.007L402.633,343.007C397.111,343.007 392.633,347.484 392.633,353.007C392.633,358.53 397.111,363.007 402.633,363.007L411.542,363.007L411.542,394.919L366.942,394.919L366.942,353.007C366.942,347.484 362.464,343.007 356.942,343.007L333.928,343.007C319.057,343.007 306.958,330.98 306.958,316.197C306.958,301.535 295.012,289.606 280.328,289.606L255.89,289.606C247.932,289.606 241.457,283.179 241.457,275.279C241.457,267.379 247.932,260.952 255.89,260.952L276.343,260.952C293.224,260.952 306.958,247.258 306.958,230.426L306.958,104.23C306.958,97.527 312.216,92.009 318.68,91.929C324.754,91.862 329.966,96.42 330.634,102.384L330.707,209.3C330.711,214.821 335.186,219.293 340.707,219.293L340.711,219.293C346.232,219.291 350.707,214.814 350.707,209.293L350.707,200.538C350.707,193.982 355.835,188.467 362.139,188.244C365.408,188.136 368.518,189.31 370.862,191.572C373.181,193.81 374.458,196.809 374.458,200.016C374.458,205.539 378.936,210.016 384.458,210.016C389.98,210.016 394.458,205.539 394.458,200.016C394.458,193.52 399.785,188.236 406.332,188.236C412.88,188.236 418.207,193.521 418.207,200.016L418.207,209.293C418.207,214.816 422.691,219.293 428.214,219.293C433.419,219.293 437.754,215.3 438.181,210.113C438.678,204.058 443.877,199.315 450.015,199.315C456.153,199.315 461.352,204.058 461.849,210.113C461.861,210.245 461.874,210.378 461.89,210.509L461.89,302.877Z" style="fill:rgb(55,80,90);fill-rule:nonzero;"/>
        </g>
    </g>
</svg>
