<?xml version="1.0" encoding="UTF-8" standalone="no"?>
<!DOCTYPE svg PUBLIC "-//W3C//DTD SVG 1.1//EN" "http://www.w3.org/Graphics/SVG/1.1/DTD/svg11.dtd">
<svg width="100%" height="100%" viewBox="0 0 512 512" version="1.1" xmlns="http://www.w3.org/2000/svg" xmlns:xlink="http://www.w3.org/1999/xlink" xml:space="preserve" xmlns:serif="http://www.serif.com/" style="fill-rule:evenodd;clip-rule:evenodd;stroke-linejoin:round;stroke-miterlimit:2;">
    <g>
        <g>
            <ellipse cx="256" cy="310.932" rx="116.794" ry="116.789" style="fill:rgb(116,200,104);"/>
        </g>
        <g>
            <path d="M313.273,294.313L250.459,254.906C244.414,251.113 236.78,250.904 230.537,254.356C224.293,257.81 220.414,264.388 220.414,271.524L220.414,350.339C220.414,357.474 224.293,364.052 230.536,367.505C233.495,369.142 236.765,369.956 240.031,369.956C243.658,369.956 247.278,368.952 250.459,366.957L313.273,327.549C319.028,323.939 322.464,317.727 322.465,310.933C322.466,304.139 319.03,297.926 313.273,294.313ZM240.414,349.649L240.414,272.214L302.129,310.931L240.414,349.649Z" style="fill:rgb(55,80,90);fill-rule:nonzero;"/>
            <path d="M486.163,32.146L26.272,32.146C12.026,32.146 0.435,43.736 0.435,57.982L-0,454.019C-0,468.265 11.591,479.855 25.837,479.855L486.163,479.855C500.409,479.855 512,468.265 512,454.019L512,57.981C512,43.735 500.409,32.146 486.163,32.146ZM473.168,142.009L419.175,107.077L492,107.077L492,142.009L473.168,142.009ZM230.277,142.009L176.284,107.077L282.158,107.077L336.152,142.009L230.277,142.009ZM20.436,107.077L49.259,107.077L103.252,142.009L20.436,142.009L20.436,107.077ZM86.078,107.077L139.464,107.077L193.458,142.009L140.072,142.009L86.078,107.077ZM336.152,52.146L282.158,87.078L176.284,87.078L230.277,52.146L336.152,52.146ZM318.979,107.077L382.355,107.077L436.349,142.009L372.973,142.009L318.979,107.077ZM492,57.981L492,87.077L419.175,87.077L473.168,52.145L486.163,52.145C489.382,52.146 492,54.764 492,57.981ZM436.349,52.146L382.355,87.078L318.979,87.078L372.973,52.146L436.349,52.146ZM193.458,52.146L139.464,87.078L86.078,87.078L140.072,52.146L193.458,52.146ZM20.436,57.981C20.436,54.763 23.054,52.145 26.273,52.145L103.253,52.145L49.259,87.077L20.436,87.077L20.436,57.981ZM492,454.019C492,457.237 489.382,459.855 486.163,459.855L25.837,459.855C22.618,459.855 20,457.237 20,454.019L20,162.009L492,162.009L492,454.019Z" style="fill:rgb(55,80,90);fill-rule:nonzero;"/>
        </g>
    </g>
</svg>
