<?xml version="1.0" encoding="UTF-8" standalone="no"?>
<!DOCTYPE svg PUBLIC "-//W3C//DTD SVG 1.1//EN" "http://www.w3.org/Graphics/SVG/1.1/DTD/svg11.dtd">
<svg width="100%" height="100%" viewBox="0 0 512 512" version="1.1" xmlns="http://www.w3.org/2000/svg" xmlns:xlink="http://www.w3.org/1999/xlink" xml:space="preserve" xmlns:serif="http://www.serif.com/" style="fill-rule:evenodd;clip-rule:evenodd;stroke-linejoin:round;stroke-miterlimit:2;">
    <g>
        <path d="M334.969,334.969L405.999,364.217L405.999,106.001L106.001,106.001L106.001,405.999L364.217,405.999L334.969,334.969Z" style="fill:rgb(116,200,104);"/>
        <path d="M509.071,459.764L472.186,422.879L491.488,403.577C493.853,401.213 494.879,397.823 494.223,394.545C493.568,391.266 491.317,388.532 488.225,387.259L455.999,373.99L455.999,368.964L476.499,368.964C482.022,368.964 486.499,364.487 486.499,358.964C486.499,353.441 482.022,348.964 476.499,348.964L455.999,348.964L455.999,318.371L502,318.371C507.523,318.371 512,313.894 512,308.371C512,302.848 507.523,298.371 502,298.371L455.999,298.371L455.999,267.779L476.499,267.779C482.022,267.779 486.499,263.302 486.499,257.779C486.499,252.256 482.022,247.779 476.499,247.779L455.999,247.779L455.999,217.186L502,217.186C507.523,217.186 512,212.709 512,207.186C512,201.663 507.523,197.186 502,197.186L455.999,197.186L455.999,166.593L476.499,166.593C482.022,166.593 486.499,162.116 486.499,156.593C486.499,151.07 482.022,146.593 476.499,146.593L455.999,146.593L455.999,116.001L502,116.001C507.523,116.001 512,111.524 512,106.001C512,100.478 507.523,96.001 502,96.001L454.994,96.001C451.252,77.64 437.416,62.906 419.556,57.869L419.556,10C419.556,4.477 415.079,0 409.556,0C404.033,0 399.556,4.477 399.556,10L399.556,56.001L368.964,56.001L368.964,35.501C368.964,29.978 364.487,25.501 358.964,25.501C353.441,25.501 348.964,29.978 348.964,35.501L348.964,56.001L318.371,56.001L318.371,10C318.371,4.477 313.894,0 308.371,0C302.848,0 298.371,4.477 298.371,10L298.371,56.001L267.779,56.001L267.779,35.501C267.779,29.978 263.302,25.501 257.779,25.501C252.256,25.501 247.779,29.978 247.779,35.501L247.779,56.001L217.186,56.001L217.186,10C217.186,4.477 212.709,0 207.186,0C201.663,0 197.186,4.477 197.186,10L197.186,56.001L166.593,56.001L166.593,35.501C166.593,29.978 162.116,25.501 156.593,25.501C151.07,25.501 146.593,29.978 146.593,35.501L146.593,56.001L116.001,56.001L116.001,10C116.001,4.477 111.524,0 106.001,0C100.478,0 96.001,4.477 96.001,10L96.001,57.006C77.641,60.748 62.907,74.583 57.87,92.443L10,92.443C4.477,92.443 -0,96.92 -0,102.443C-0,107.966 4.477,112.443 10,112.443L56.001,112.443L56.001,143.035L35.5,143.035C29.977,143.035 25.5,147.512 25.5,153.035C25.5,158.558 29.977,163.035 35.5,163.035L56.001,163.035L56.001,193.628L10,193.628C4.477,193.628 -0,198.105 -0,203.628C-0,209.151 4.477,213.628 10,213.628L56.001,213.628L56.001,244.221L35.5,244.221C29.977,244.221 25.5,248.698 25.5,254.221C25.5,259.744 29.977,264.221 35.5,264.221L56.001,264.221L56.001,294.814L10,294.814C4.477,294.814 -0,299.291 -0,304.814C-0,310.337 4.477,314.814 10,314.814L56.001,314.814L56.001,345.407L35.5,345.407C29.977,345.407 25.5,349.884 25.5,355.407C25.5,360.93 29.977,365.407 35.5,365.407L56.001,365.407L56.001,395.999L10,395.999C4.477,395.999 -0,400.476 -0,405.999C-0,411.522 4.477,415.999 10,415.999L57.006,415.999C60.748,434.359 74.583,449.093 92.443,454.13L92.443,502C92.443,507.523 96.92,512 102.443,512C107.966,512 112.443,507.523 112.443,502L112.443,455.999L143.035,455.999L143.035,476.5C143.035,482.023 147.512,486.5 153.035,486.5C158.558,486.5 163.035,482.023 163.035,476.5L163.035,455.999L193.628,455.999L193.628,502C193.628,507.523 198.105,512 203.628,512C209.151,512 213.628,507.523 213.628,502L213.628,455.999L244.221,455.999L244.221,476.5C244.221,482.023 248.698,486.5 254.221,486.5C259.744,486.5 264.221,482.023 264.221,476.5L264.221,455.999L294.814,455.999L294.814,502C294.814,507.523 299.291,512 304.814,512C310.337,512 314.814,507.523 314.814,502L314.814,455.999L345.407,455.999L345.407,476.5C345.407,482.023 349.884,486.5 355.407,486.5C360.93,486.5 365.407,482.023 365.407,476.5L365.407,455.999L373.991,455.999L387.26,488.226C388.533,491.318 391.267,493.568 394.545,494.224C397.822,494.88 401.212,493.853 403.578,491.49L422.88,472.187L459.765,509.072C461.718,511.025 464.277,512.001 466.836,512.001C469.395,512.001 471.955,511.025 473.907,509.072L509.072,473.907C512.977,470.002 512.977,463.67 509.071,459.764ZM106.001,435.999C89.459,435.999 76.001,422.541 76.001,405.999L76.001,106.001C76.001,89.459 89.459,76.001 106.001,76.001L405.999,76.001C422.541,76.001 435.999,89.459 435.999,106.001L435.999,365.755L350.102,330.385C412.203,253.864 355.443,135.099 255.999,136.001C189.832,136 136,189.832 136,256C135.113,355.444 253.863,412.208 330.385,350.102L365.755,435.999L106.001,435.999ZM297.74,192.922C294.869,180.702 291.094,169.703 286.433,160.734C298.752,164.679 310.04,170.952 319.776,179.032C313.007,184.654 305.603,189.308 297.74,192.922ZM333.863,193.317C345.735,208.035 353.527,226.174 355.504,246L304.343,246C303.99,234.798 303.045,223.692 301.517,213.094C313.187,208.312 324.095,201.668 333.863,193.317ZM297.74,319.078C305.602,322.692 313.006,327.346 319.776,332.968C310.04,341.049 298.753,347.322 286.433,351.266C291.094,342.297 294.869,331.298 297.74,319.078ZM301.516,298.907C303.044,288.308 303.989,277.202 304.342,266.001L355.503,266.001C353.526,285.827 345.734,303.966 333.862,318.684C324.095,310.332 313.187,303.688 301.516,298.907ZM256,290.001C247.089,290.001 238.32,290.969 229.816,292.854C228.694,284.292 227.967,275.279 227.663,266L284.337,266C284.033,275.279 283.306,284.292 282.184,292.854C273.68,290.968 264.912,290.001 256,290.001ZM278.714,312.581C275.825,327.862 265.107,355.334 256,355.45C246.924,355.369 236.151,327.816 233.287,312.581C247.954,309.148 264.046,309.148 278.714,312.581ZM227.663,246C227.967,236.721 228.694,227.708 229.816,219.146C238.32,221.031 247.089,221.999 256,221.999C264.912,221.999 273.68,221.031 282.185,219.146C283.307,227.708 284.034,236.721 284.338,246L227.663,246ZM233.287,199.419C236.176,184.138 246.894,156.666 256.001,156.55C265.077,156.631 275.85,184.184 278.714,199.419C264.046,202.852 247.954,202.852 233.287,199.419ZM207.658,266C208.011,277.202 208.956,288.307 210.484,298.906C198.813,303.687 187.905,310.331 178.138,318.682C166.266,303.964 158.474,285.825 156.497,265.999L207.658,265.999L207.658,266ZM156.497,246C158.474,226.174 166.266,208.035 178.138,193.317C187.906,201.668 198.813,208.312 210.484,213.093C208.956,223.692 208.01,234.798 207.658,245.999L156.497,245.999L156.497,246ZM214.26,319.077C217.131,331.297 220.907,342.296 225.567,351.265C213.247,347.32 201.96,341.047 192.224,332.966C198.994,327.346 206.397,322.692 214.26,319.077ZM214.26,192.923C206.397,189.309 198.994,184.655 192.224,179.033C201.96,170.952 213.247,164.679 225.567,160.734C220.907,169.703 217.131,180.702 214.26,192.923ZM466.835,487.858L429.95,450.973C427.997,449.02 425.438,448.044 422.879,448.044C420.32,448.044 417.76,449.02 415.808,450.973L400.041,466.74L353.353,353.354L466.739,400.042L450.972,415.808C449.097,417.683 448.043,420.227 448.043,422.879C448.043,425.531 449.097,428.075 450.972,429.95L487.857,466.835L466.835,487.858Z" style="fill:rgb(55,80,90);fill-rule:nonzero;"/>
    </g>
</svg>
