<?xml version="1.0" encoding="UTF-8" standalone="no"?>
<!DOCTYPE svg PUBLIC "-//W3C//DTD SVG 1.1//EN" "http://www.w3.org/Graphics/SVG/1.1/DTD/svg11.dtd">
<svg width="100%" height="100%" viewBox="0 0 512 512" version="1.1" xmlns="http://www.w3.org/2000/svg" xmlns:xlink="http://www.w3.org/1999/xlink" xml:space="preserve" xmlns:serif="http://www.serif.com/" style="fill-rule:evenodd;clip-rule:evenodd;stroke-linejoin:round;stroke-miterlimit:2;">
    <g>
        <g>
            <path d="M238.574,215.577L134.789,215.577C90.242,215.577 54,179.336 54,134.789C54,90.242 90.242,54 134.789,54L377.212,54C421.758,54 458,90.242 458,134.789C458,179.336 421.758,215.578 377.211,215.578L276.757,215.578" style="fill:rgb(116,200,104);fill-rule:nonzero;"/>
        </g>
        <g>
            <path d="M512,134.789C512,60.466 451.534,0 377.211,0L134.789,0C60.466,0 0,60.466 0,134.789C0,209.112 60.466,269.578 134.789,269.578L226.35,269.578L226.424,350.922L193.901,350.922C173.899,350.922 157.626,367.195 157.626,387.197C157.626,407.199 173.899,423.471 193.901,423.471L219.083,423.471C219.308,423.471 219.494,423.479 219.645,423.491C220.266,425.153 220.723,429.044 221.037,431.721C222.095,440.749 223.544,453.114 233.184,463.26C242.307,472.863 256.721,478.198 277.076,479.467L277.076,502C277.076,507.523 281.554,512 287.076,512L351.255,512C356.777,512 361.255,507.523 361.255,502L361.255,480.185C400.143,474.349 419.841,457.926 419.841,431.293L419.841,335.214C419.841,334.642 419.826,334.071 419.796,333.514C418.92,316.915 405.422,303.554 389.054,303.093C380.344,302.852 372.361,306.122 366.475,311.642C360.576,306.112 352.922,303.079 344.812,303.079C336.487,303.079 328.833,306.355 323.135,311.713C317.44,306.356 309.787,303.079 301.465,303.079C297.302,303.079 293.305,303.899 289.638,305.388C289.636,290.964 289.634,279.19 289.632,269.576L377.214,269.576C451.534,269.578 512,209.111 512,134.789ZM289.832,333.851C290.274,327.811 295.384,323.081 301.462,323.081C307.534,323.081 312.639,327.812 313.081,333.851C313.465,339.076 317.815,343.12 323.055,343.12L323.205,343.12C328.444,343.12 332.795,339.077 333.179,333.851C333.621,327.811 338.731,323.081 344.809,323.081C347.924,323.081 350.86,324.298 353.055,326.488C355.035,328.472 356.236,331.087 356.438,333.85C356.821,339.076 361.172,343.12 366.412,343.12L366.562,343.12C371.802,343.12 376.155,339.074 376.536,333.848C376.988,327.642 382.265,322.908 388.496,323.087C394.519,323.256 399.494,328.302 399.822,334.575C399.822,334.58 399.823,334.585 399.823,334.59C399.834,334.795 399.839,335.005 399.839,335.216L399.839,431.295C399.839,438.148 399.839,456.352 350.237,461.416C345.134,461.937 341.253,466.235 341.253,471.364L341.253,492L297.074,492L297.074,469.764C297.074,464.241 292.596,459.764 287.074,459.764C267.416,459.764 254.162,456.306 247.682,449.484C242.631,444.168 241.79,436.991 240.899,429.392C240.244,423.805 239.626,418.527 237.188,413.826C234.737,409.102 229.607,403.47 219.082,403.47L193.9,403.47C184.926,403.47 177.625,396.169 177.625,387.196C177.625,378.222 184.926,370.921 193.9,370.921L236.432,370.921C239.086,370.921 241.631,369.866 243.506,367.989C245.381,366.111 246.434,363.566 246.432,360.912L246.312,227.398C246.313,227.368 246.315,227.338 246.315,227.309C246.538,221.067 251.731,216.112 257.969,216.112C258.08,216.112 258.194,216.113 258.305,216.117C264.264,216.284 269.193,221.218 269.61,227.398C269.625,231.858 269.635,297.649 269.638,332.529C269.638,332.868 269.656,333.207 269.69,333.545C269.708,333.713 269.728,333.879 269.753,334.059C270.231,339.169 274.527,343.12 279.709,343.12L279.859,343.12C285.098,343.119 289.448,339.076 289.832,333.851ZM289.594,226.559C288.74,209.954 275.242,196.586 258.87,196.125C241.698,195.643 227.145,209.115 226.342,226.242C226.321,226.517 226.311,226.797 226.311,227.082L226.331,249.578L134.788,249.578C71.494,249.578 20,198.083 20,134.789C20,71.494 71.494,20 134.789,20L377.211,20C440.506,20 492,71.494 492,134.789C492,198.083 440.506,249.578 377.211,249.578L289.623,249.578C289.615,226.949 289.605,226.762 289.594,226.559Z" style="fill:rgb(55,80,90);fill-rule:nonzero;"/>
        </g>
    </g>
</svg>
