<?xml version="1.0" encoding="UTF-8" standalone="no"?>
<!DOCTYPE svg PUBLIC "-//W3C//DTD SVG 1.1//EN" "http://www.w3.org/Graphics/SVG/1.1/DTD/svg11.dtd">
<svg width="100%" height="100%" viewBox="0 0 512 512" version="1.1" xmlns="http://www.w3.org/2000/svg" xmlns:xlink="http://www.w3.org/1999/xlink" xml:space="preserve" xmlns:serif="http://www.serif.com/" style="fill-rule:evenodd;clip-rule:evenodd;stroke-linejoin:round;stroke-miterlimit:2;">
    <g>
        <path stroke-width="100" d="M507.606,422.754L421.098,336.246L463.525,293.82C467.201,290.144 468.712,284.827 467.517,279.767C466.322,274.707 462.594,270.627 457.662,268.983L203.104,184.13C197.715,182.333 191.771,183.736 187.754,187.754C183.736,191.772 182.333,197.714 184.13,203.104L268.983,457.663C270.628,462.595 274.708,466.324 279.767,467.518C284.826,468.715 290.144,467.203 293.82,463.526L336.247,421.1L422.755,507.607C425.684,510.536 429.523,512.001 433.361,512.001C437.199,512.001 441.039,510.537 443.967,507.607L507.607,443.967C513.465,438.109 513.465,428.612 507.606,422.754ZM433.36,475.787L346.852,389.28C340.995,383.422 331.496,383.422 325.639,389.28L289.768,425.151L222.077,222.078L425.15,289.769L389.279,325.64C383.426,331.492 383.421,340.996 389.279,346.853L475.787,433.361L433.36,475.787Z" style="fill:rgb(55,80,90);fill-rule:nonzero;"/>
        <path d="M195,120C203.284,120 210,113.284 210,105L210,15C210,6.716 203.284,0 195,0C186.716,0 180,6.716 180,15L180,105C180,113.284 186.716,120 195,120Z" style="fill:rgb(116,200,104);fill-rule:nonzero;"/>
        <path d="M78.327,57.114C72.47,51.256 62.972,51.256 57.114,57.114C51.256,62.972 51.256,72.469 57.114,78.327L120.754,141.967C126.611,147.825 136.11,147.825 141.967,141.967C147.825,136.109 147.825,126.612 141.967,120.754L78.327,57.114Z" style="fill:rgb(116,200,104);fill-rule:nonzero;"/>
        <path d="M120.754,248.033L57.114,311.673C51.256,317.531 51.256,327.028 57.114,332.886C62.971,338.744 72.47,338.744 78.327,332.886L141.967,269.246C147.825,263.388 147.825,253.891 141.967,248.033C136.109,242.175 126.611,242.175 120.754,248.033Z" style="fill:rgb(116,200,104);fill-rule:nonzero;"/>
        <path d="M269.246,141.967L332.886,78.327C338.744,72.469 338.744,62.972 332.886,57.114C327.029,51.256 317.531,51.256 311.673,57.114L248.033,120.754C242.175,126.612 242.175,136.109 248.033,141.967C253.89,147.825 263.389,147.825 269.246,141.967Z" style="fill:rgb(116,200,104);fill-rule:nonzero;"/>
        <path d="M120,195C120,186.716 113.284,180 105,180L15,180C6.716,180 0,186.716 0,195C0,203.284 6.716,210 15,210L105,210C113.284,210 120,203.284 120,195Z" style="fill:rgb(116,200,104);fill-rule:nonzero;"/>
    </g>
</svg>
