<?xml version="1.0" encoding="UTF-8" standalone="no"?>
<!DOCTYPE svg PUBLIC "-//W3C//DTD SVG 1.1//EN" "http://www.w3.org/Graphics/SVG/1.1/DTD/svg11.dtd">
<svg width="100%" height="100%" viewBox="0 0 512 512" version="1.1" xmlns="http://www.w3.org/2000/svg" xmlns:xlink="http://www.w3.org/1999/xlink" xml:space="preserve" xmlns:serif="http://www.serif.com/" style="fill-rule:evenodd;clip-rule:evenodd;stroke-linejoin:round;stroke-miterlimit:2;">
    <g>
        <path d="M490.734,160.612L489.258,160.612C486.487,151.603 482.874,142.876 478.461,134.531L479.567,133.423C487.826,125.152 487.826,111.692 479.567,103.419L446.667,70.466C442.648,66.442 437.301,64.225 431.611,64.225C425.921,64.225 420.573,66.442 416.554,70.467L415.519,71.504C407.195,67.09 398.488,63.476 389.502,60.702L389.502,59.166C389.502,47.452 379.962,37.922 368.237,37.922L321.748,37.922C310.022,37.922 300.482,47.452 300.482,59.166L300.482,60.702C291.495,63.476 282.789,67.091 274.465,71.504L273.43,70.467C269.411,66.442 264.064,64.225 258.373,64.225C252.683,64.225 247.335,66.441 243.317,70.466L210.417,103.418C202.158,111.69 202.158,125.15 210.417,133.422L211.523,134.53C207.111,142.874 203.498,151.602 200.726,160.611L199.25,160.611C187.524,160.611 177.984,170.141 177.984,181.855L177.984,214.505C177.874,214.47 177.765,214.434 177.655,214.399C177.637,203.797 168.998,195.176 158.382,195.176L120.112,195.176C109.495,195.176 100.856,203.796 100.838,214.399C94.191,216.527 87.731,219.209 81.521,222.419C77.886,218.813 73.068,216.829 67.942,216.829C62.785,216.829 57.938,218.838 54.296,222.486L27.213,249.612C19.729,257.108 19.727,269.305 27.208,276.804C23.997,283.031 21.316,289.508 19.189,296.174C8.601,296.22 -0,304.84 -0,315.43L-0,353.824C-0,364.414 8.601,373.035 19.19,373.08C21.317,379.745 23.999,386.223 27.209,392.45C19.727,399.949 19.729,412.145 27.214,419.642L54.297,446.768C57.939,450.416 62.785,452.425 67.943,452.425C73.069,452.425 77.887,450.44 81.522,446.835C87.732,450.046 94.191,452.727 100.839,454.855C100.857,465.458 109.496,474.078 120.113,474.078L158.383,474.078C168.999,474.078 177.638,465.458 177.656,454.855C184.304,452.727 190.762,450.045 196.973,446.835C200.608,450.44 205.427,452.425 210.552,452.425C215.709,452.425 220.555,450.416 224.197,446.768L251.28,419.643C258.766,412.146 258.768,399.949 251.286,392.451C254.496,386.223 257.178,379.747 259.305,373.081C269.894,373.036 278.495,364.415 278.495,353.825L278.495,340.634C285.32,343.933 292.917,347.131 300.482,349.582L300.482,351.188C300.482,362.902 310.022,372.432 321.748,372.432L368.237,372.432C379.963,372.432 389.502,362.902 389.502,351.188L389.502,349.652C398.489,346.878 407.195,343.263 415.519,338.85L416.555,339.888C420.574,343.913 425.921,346.129 431.612,346.129C437.302,346.129 442.649,343.912 446.668,339.887L479.568,306.935C487.827,298.663 487.827,285.203 479.568,276.931L478.462,275.823C482.875,267.478 486.487,258.753 489.259,249.742L490.735,249.742C502.461,249.742 512.001,240.212 512.001,228.498L512.001,181.857C512,170.142 502.46,160.612 490.734,160.612ZM258.495,353.08L251.761,353.08C247.177,353.08 243.18,356.197 242.063,360.643C239.552,370.633 235.595,380.193 230.301,389.058C227.954,392.989 228.576,398.011 231.81,401.25L236.595,406.043L210.551,432.128L205.788,427.358C202.546,424.111 197.509,423.487 193.573,425.845C184.723,431.146 175.181,435.108 165.212,437.621C160.77,438.741 157.656,442.736 157.656,447.318L157.656,454.078L120.839,454.078L120.839,447.318C120.839,442.736 117.726,438.741 113.283,437.621C103.313,435.108 93.771,431.146 84.922,425.845C80.986,423.487 75.949,424.11 72.707,427.358L67.944,432.128L41.899,406.043L46.685,401.25C49.919,398.011 50.541,392.988 48.194,389.058C42.9,380.192 38.943,370.631 36.433,360.643C35.315,356.197 31.318,353.08 26.734,353.08L20,353.08L20,316.174L26.734,316.174C31.318,316.174 35.315,313.057 36.433,308.611C38.943,298.622 42.9,289.062 48.194,280.197C50.541,276.266 49.919,271.244 46.685,268.005L41.899,263.212L67.944,237.127L72.707,241.897C75.95,245.144 80.985,245.768 84.922,243.41C93.771,238.11 103.313,234.147 113.284,231.633C117.726,230.513 120.839,226.518 120.839,221.937L120.839,215.177L157.656,215.177L157.656,221.937C157.656,226.518 160.769,230.514 165.211,231.633C175.182,234.147 184.724,238.11 193.573,243.41C197.509,245.768 202.546,245.145 205.788,241.897L210.552,237.126L236.596,263.212L231.81,268.005C228.576,271.245 227.955,276.267 230.301,280.197C235.594,289.061 239.552,298.622 242.063,308.612C243.18,313.058 247.177,316.175 251.761,316.175L258.495,316.175L258.495,353.08ZM492,228.497C492,229.183 491.432,229.741 490.734,229.741L481.671,229.741C477.087,229.741 473.09,232.858 471.973,237.304C468.872,249.643 463.985,261.45 457.446,272.4C455.099,276.331 455.721,281.353 458.955,284.592L465.413,291.061C465.892,291.541 465.892,292.323 465.413,292.804L432.513,325.756C432.02,326.25 431.199,326.25 430.707,325.756L424.304,319.342C421.062,316.093 416.025,315.47 412.088,317.828C401.158,324.375 389.372,329.269 377.056,332.374C372.614,333.494 369.5,337.489 369.5,342.071L369.5,351.187C369.5,351.872 368.933,352.431 368.235,352.431L321.746,352.431C321.048,352.431 320.48,351.873 320.48,351.187L320.48,342.071C320.48,337.49 317.367,333.494 312.924,332.374C302.846,329.834 289.763,324.392 278.493,318.127L278.493,315.43C278.493,304.84 269.892,296.219 259.303,296.174C257.176,289.507 254.494,283.031 251.283,276.804C258.765,269.305 258.762,257.108 251.278,249.612L224.195,222.485C220.553,218.838 215.707,216.828 210.549,216.828C205.886,216.828 201.477,218.471 197.982,221.483L197.982,181.855C197.982,181.169 198.55,180.611 199.248,180.611L208.31,180.611C212.894,180.611 216.891,177.494 218.008,173.048C221.109,160.71 225.996,148.902 232.535,137.951C234.882,134.021 234.26,128.999 231.026,125.759L224.568,119.29C224.088,118.809 224.088,118.028 224.568,117.547L257.468,84.595C257.961,84.101 258.78,84.101 259.274,84.595L265.677,91.008C268.919,94.256 273.956,94.88 277.892,92.521C288.822,85.974 300.608,81.08 312.924,77.975C317.366,76.855 320.48,72.859 320.48,68.278L320.48,59.162C320.48,58.476 321.048,57.918 321.746,57.918L368.235,57.918C368.933,57.918 369.5,58.476 369.5,59.162L369.5,68.278C369.5,72.86 372.613,76.855 377.056,77.975C389.372,81.079 401.159,85.974 412.088,92.521C416.025,94.878 421.062,94.255 424.304,91.007L430.706,84.594C431.2,84.099 432.02,84.099 432.513,84.594L465.413,117.546C465.893,118.027 465.893,118.809 465.413,119.289L458.955,125.758C455.721,128.998 455.099,134.02 457.446,137.95C463.985,148.901 468.872,160.709 471.973,173.047C473.09,177.493 477.087,180.61 481.671,180.61L490.734,180.61C491.432,180.61 492,181.168 492,181.854L492,228.497Z" style="fill:rgb(55,80,90);fill-rule:nonzero;"/>
        <path d="M344.992,115.228C295.463,115.228 255.169,155.579 255.169,205.177C255.169,254.775 295.463,295.126 344.992,295.126C394.521,295.126 434.815,254.775 434.815,205.177C434.815,155.579 394.521,115.228 344.992,115.228ZM344.992,275.125C306.492,275.125 275.169,243.746 275.169,205.176C275.169,166.606 306.492,135.227 344.992,135.227C383.492,135.227 414.815,166.606 414.815,205.176C414.815,243.747 383.493,275.125 344.992,275.125Z" style="fill:rgb(116,200,104);fill-rule:nonzero;"/>
    </g>
    <g>
        <g>
            <ellipse cx="139.247" cy="334.627" rx="65.71" ry="65.813" style="fill:rgb(116,200,104);"/>
        </g>
    </g>
</svg>
