<?xml version="1.0" encoding="UTF-8" standalone="no"?>
<!DOCTYPE svg PUBLIC "-//W3C//DTD SVG 1.1//EN" "http://www.w3.org/Graphics/SVG/1.1/DTD/svg11.dtd">
<svg width="100%" height="100%" viewBox="0 0 512 512" version="1.1" xmlns="http://www.w3.org/2000/svg" xmlns:xlink="http://www.w3.org/1999/xlink" xml:space="preserve" xmlns:serif="http://www.serif.com/" style="fill-rule:evenodd;clip-rule:evenodd;stroke-linejoin:round;stroke-miterlimit:2;">
    <g>
        <g>
            <g>
                <ellipse cx="106.795" cy="307.049" rx="22.886" ry="22.917" style="fill:rgb(116,200,104);"/>
            </g>
            <g>
                <ellipse cx="181.677" cy="307.049" rx="22.886" ry="22.917" style="fill:rgb(116,200,104);"/>
            </g>
            <g>
                <ellipse cx="256.558" cy="307.049" rx="22.886" ry="22.917" style="fill:rgb(116,200,104);"/>
            </g>
            <g>
                <path d="M479.144,31.037L223.868,31.037C205.722,31.037 191.012,45.768 191.012,63.939L191.012,127.393C281.485,132.248 353.354,207.245 353.354,299.052C353.354,299.157 353.353,299.262 353.353,299.367L399.685,299.367L441.632,328.792L452.696,299.367L479.145,299.367C497.291,299.367 512.001,284.636 512.001,266.465L512.001,63.94C512,45.768 497.29,31.037 479.144,31.037Z" style="fill:rgb(116,200,104);fill-rule:nonzero;"/>
            </g>
        </g>
        <g>
            <path d="M181.677,480.963C141.568,480.963 103.535,468.125 71.691,443.838L67.168,440.445L23.944,446.86C20.616,447.353 17.256,446.139 15.013,443.625C12.771,441.111 11.945,437.638 12.816,434.384L24.572,390.448C8.482,362.768 -0,331.266 -0,299.053C-0,198.748 81.5,117.143 181.677,117.143C281.854,117.143 363.354,198.747 363.354,299.053C363.354,399.359 281.854,480.963 181.677,480.963ZM69.828,419.94C71.978,419.94 74.087,420.634 75.829,421.94L83.755,427.886C112.15,449.541 145.988,460.962 181.677,460.962C270.825,460.962 343.354,388.33 343.354,299.052C343.354,209.774 270.826,137.142 181.677,137.142C92.528,137.142 20,209.776 20,299.053C20,329.028 28.246,358.304 43.847,383.718C45.283,386.057 45.694,388.883 44.985,391.534L36.073,424.841L68.361,420.049C68.849,419.976 69.34,419.94 69.828,419.94Z" style="fill:rgb(55,80,90);fill-rule:nonzero;"/>
        </g>
    </g>
</svg>
