<?xml version="1.0" encoding="UTF-8" standalone="no"?>
<!DOCTYPE svg PUBLIC "-//W3C//DTD SVG 1.1//EN" "http://www.w3.org/Graphics/SVG/1.1/DTD/svg11.dtd">
<svg width="100%" height="100%" viewBox="0 0 512 512" version="1.1" xmlns="http://www.w3.org/2000/svg" xmlns:xlink="http://www.w3.org/1999/xlink" xml:space="preserve" xmlns:serif="http://www.serif.com/" style="fill-rule:evenodd;clip-rule:evenodd;stroke-linejoin:round;stroke-miterlimit:2;">
    <g>
        <g>
            <path d="M512,189.885C512,87.776 429.259,5 327.192,5C245.211,5 175.698,58.403 151.514,132.333C165.402,128.998 179.899,127.231 194.809,127.231C296.876,127.231 379.617,210.007 379.617,312.116C379.617,332.209 376.412,351.553 370.488,369.665C395.765,363.591 419.019,352.319 439.063,337.046L447.596,330.652L498.571,338.21L484.739,286.567C502.024,258.435 512,225.327 512,189.885Z" style="fill:rgb(116,200,104);fill-rule:nonzero;"/>
            <g>
                <g>
                    <ellipse cx="114.199" cy="320.715" rx="24.637" ry="24.647" style="fill:rgb(116,200,104);"/>
                </g>
                <g>
                    <ellipse cx="194.808" cy="320.715" rx="24.637" ry="24.647" style="fill:rgb(116,200,104);"/>
                </g>
                <g>
                    <ellipse cx="275.418" cy="320.715" rx="24.637" ry="24.647" style="fill:rgb(116,200,104);"/>
                </g>
            </g>
        </g>
        <g>
            <path d="M194.808,507C151.801,507 111.021,493.248 76.877,467.229L71.746,463.384L24.896,470.331C21.566,470.822 18.207,469.608 15.965,467.094C13.723,464.58 12.898,461.106 13.769,457.852L26.505,410.301C9.152,380.583 -0,346.732 -0,312.115C-0,204.655 87.391,117.23 194.808,117.23C302.226,117.23 389.617,204.655 389.617,312.115C389.617,419.575 302.226,507 194.808,507ZM74.405,442.881C76.554,442.881 78.661,443.574 80.402,444.879L88.935,451.273C119.63,474.663 156.218,487 194.808,487C291.198,487 369.617,408.547 369.617,312.115C369.617,215.683 291.198,137.23 194.808,137.23C98.418,137.23 20,215.684 20,312.115C20,344.49 28.915,376.112 45.782,403.561C47.22,405.901 47.632,408.73 46.922,411.384L37.03,448.314L72.938,442.99C73.427,442.917 73.917,442.881 74.405,442.881Z" style="fill:rgb(55,80,90);fill-rule:nonzero;"/>
        </g>
    </g>
</svg>
